<svg width="449" height="195" viewBox="0 0 449 195" fill="none" xmlns="http://www.w3.org/2000/svg">
<path d="M61.2033 176.858C45.5735 176.858 34.2922 174.211 27.3596 168.917C20.427 163.623 16.9607 154.422 16.9607 141.313C16.9607 128.078 19.9229 118.876 25.8471 113.708C31.8974 108.54 40.6576 105.956 52.1279 105.956C55.1531 105.956 58.4933 106.082 62.1487 106.335C65.8041 106.587 69.3334 106.965 72.7367 107.469C76.266 107.847 79.1651 108.414 81.4339 109.171V128.645L80.6777 128.834C78.6609 128.204 75.5097 127.636 71.2241 127.132C67.0645 126.502 63.3461 126.187 60.0689 126.187C58.1782 126.187 56.5396 126.25 55.1531 126.376V126.565L92.0219 152.09C92.148 152.09 92.274 152.09 92.4 152.09V94.423H1.83507V74.1924H139.101V94.423H120.383V187.257H92.4V171.942L92.0219 171.753C88.7447 173.392 84.5221 174.652 79.3542 175.534C74.3123 176.417 68.262 176.858 61.2033 176.858ZM41.9181 140.934C41.9181 146.985 43.7458 151.081 47.4012 153.224C51.0565 155.241 57.2959 156.249 66.1192 156.249C69.5225 156.249 72.9257 156.06 76.329 155.682V155.493L43.4307 132.804H43.0525C42.2963 134.695 41.9181 137.405 41.9181 140.934ZM120.712 42.9957C120.964 45.0125 121.153 46.8402 121.279 48.4788C121.279 49.9914 121.279 51.5039 121.279 53.0165C121.279 55.6635 121.09 59.0037 120.712 63.0373C118.317 63.5414 115.922 63.9196 113.527 64.1717C111.132 64.4238 108.737 64.5498 106.343 64.5498C104.074 64.5498 101.805 64.4238 99.536 64.1717C97.2671 63.9196 94.9353 63.5414 92.5404 63.0373C92.2883 61.1465 92.0992 59.4449 91.9732 57.9323C91.8471 56.2937 91.7841 54.7181 91.7841 53.2056C91.7841 51.819 91.8471 50.3065 91.9732 48.6679C92.0992 46.9032 92.2883 45.0125 92.5404 42.9957C94.9353 42.4916 97.3302 42.1764 99.7251 42.0504C101.994 41.7983 104.326 41.6722 106.721 41.6722C108.99 41.6722 111.321 41.7983 113.716 42.0504C115.985 42.1764 118.317 42.4916 120.712 42.9957ZM166.089 188.958C159.787 188.958 154.114 188.643 149.073 188.013C144.031 187.257 139.493 186.312 135.459 185.177V163.623L135.838 163.434C138.863 164.19 142.203 164.82 145.858 165.325C149.514 165.829 153.547 166.081 157.959 166.081C164.009 166.081 168.169 165.073 170.438 163.056C172.832 160.913 174.03 156.375 174.03 149.443C174.03 143.771 172.769 139.926 170.249 137.909C167.854 135.767 162.749 134.695 154.934 134.695H149.262V112.763H219.596V94.423H124.872V74.1924H266.297V94.423H247.389V187.257H219.596V132.804H188.967V133.183C192.622 134.569 195.332 137.216 197.097 141.124C198.861 144.905 199.744 149.506 199.744 154.926C199.744 163.371 198.735 170.051 196.718 174.967C194.828 179.883 191.424 183.475 186.509 185.744C181.719 187.887 174.912 188.958 166.089 188.958ZM270.05 187.257V94.423H251.143V74.1924H316.939V94.423H298.032V187.257H270.05ZM350.325 187.824L314.78 149.065V127.132H324.612C331.04 127.132 336.586 126.124 341.25 124.107C345.914 122.09 348.245 118.561 348.245 113.519V94.423H303.625V74.1924H394.568V94.423H375.661V116.733C375.661 126.313 372.573 133.372 366.396 137.909C360.22 142.447 352.468 144.716 343.141 144.716C342.384 144.716 341.628 144.653 340.872 144.527V145.283C347.552 149.695 354.422 155.43 361.48 162.489C368.539 169.421 375.724 177.551 383.035 186.879V187.824H350.325ZM398.559 187.257V94.423H379.652V74.1924H445.449V94.423H426.542V187.257H398.559Z" fill="#336345"/>
<path d="M61.1086 160.899C45.4788 160.899 34.1975 158.252 27.2649 152.958C20.3323 147.664 16.866 138.463 16.866 125.354C16.866 112.119 19.8281 102.918 25.7524 97.7498C31.8026 92.5818 40.5629 89.9979 52.0332 89.9979C55.0583 89.9979 58.3986 90.1239 62.054 90.376C65.7093 90.6281 69.2387 91.0062 72.6419 91.5104C76.1713 91.8886 79.0704 92.4558 81.3392 93.2121V112.686L80.5829 112.875C78.5662 112.245 75.415 111.678 71.1294 111.174C66.9698 110.544 63.2514 110.228 59.9742 110.228C58.0835 110.228 56.4449 110.291 55.0583 110.418V110.607L91.9272 136.131C92.0532 136.131 92.1793 136.131 92.3053 136.131V78.4645H1.74035V58.2339H139.006V78.4645H120.288V171.298H92.3053V155.984L91.9272 155.795C88.65 157.433 84.4274 158.694 79.2594 159.576C74.2175 160.458 68.1673 160.899 61.1086 160.899ZM41.8234 124.976C41.8234 131.026 43.6511 135.123 47.3064 137.266C50.9618 139.282 57.2012 140.291 66.0245 140.291C69.4277 140.291 72.831 140.102 76.2343 139.724V139.534L43.336 116.846H42.9578C42.2015 118.737 41.8234 121.447 41.8234 124.976ZM120.617 27.0372C120.869 29.054 121.058 30.8817 121.184 32.5203C121.184 34.0329 121.184 35.5454 121.184 37.058C121.184 39.705 120.995 43.0453 120.617 47.0788C118.222 47.5829 115.827 47.9611 113.433 48.2132C111.038 48.4653 108.643 48.5913 106.248 48.5913C103.979 48.5913 101.71 48.4653 99.4413 48.2132C97.1724 47.9611 94.8405 47.5829 92.4456 47.0788C92.1936 45.188 92.0045 43.4864 91.8784 41.9738C91.7524 40.3352 91.6894 38.7596 91.6894 37.2471C91.6894 35.8605 91.7524 34.348 91.8784 32.7094C92.0045 30.9447 92.1936 29.054 92.4456 27.0372C94.8405 26.5331 97.2354 26.2179 99.6303 26.0919C101.899 25.8398 104.231 25.7137 106.626 25.7137C108.895 25.7137 111.227 25.8398 113.622 26.0919C115.89 26.2179 118.222 26.5331 120.617 27.0372ZM165.994 173C159.692 173 154.02 172.685 148.978 172.055C143.936 171.298 139.398 170.353 135.365 169.219V147.664L135.743 147.475C138.768 148.232 142.108 148.862 145.764 149.366C149.419 149.87 153.453 150.122 157.864 150.122C163.914 150.122 168.074 149.114 170.343 147.097C172.738 144.954 173.935 140.417 173.935 133.484C173.935 127.812 172.675 123.968 170.154 121.951C167.759 119.808 162.654 118.737 154.839 118.737H149.167V96.8044H219.501V78.4645H124.777V58.2339H266.202V78.4645H247.295V171.298H219.501V116.846H188.872V117.224C192.527 118.611 195.237 121.258 197.002 125.165C198.767 128.946 199.649 133.547 199.649 138.967C199.649 147.412 198.64 154.093 196.624 159.009C194.733 163.925 191.33 167.517 186.414 169.786C181.624 171.929 174.818 173 165.994 173ZM269.955 171.298V78.4645H251.048V58.2339H316.845V78.4645H297.938V171.298H269.955ZM350.231 171.866L314.685 133.106V111.174H324.517C330.945 111.174 336.491 110.165 341.155 108.149C345.819 106.132 348.151 102.603 348.151 97.5607V78.4645H303.53V58.2339H394.473V78.4645H375.566V100.775C375.566 110.354 372.478 117.413 366.302 121.951C360.125 126.489 352.373 128.757 343.046 128.757C342.29 128.757 341.533 128.694 340.777 128.568V129.325C347.458 133.736 354.327 139.471 361.386 146.53C368.444 153.463 375.629 161.593 382.94 170.92V171.866H350.231ZM398.464 171.298V78.4645H379.557V58.2339H445.354V78.4645H426.447V171.298H398.464Z" fill="#FEEE1F"/>
</svg>
