<svg width="341" height="43" viewBox="0 0 341 43" fill="none" xmlns="http://www.w3.org/2000/svg">
<path d="M19.9283 23.222C29.6967 23.222 39.4673 23.222 49.2356 23.222C72.4942 23.222 95.7527 23.222 119.011 23.222C147.125 23.222 175.238 23.222 203.35 23.222C227.809 23.222 252.268 23.222 276.726 23.222C288.529 23.222 300.336 23.3203 312.138 23.222C312.306 23.2197 312.476 23.222 312.644 23.222C315.847 23.222 316.408 18.2193 313.169 18.2193C303.401 18.2193 293.63 18.2193 283.862 18.2193C260.603 18.2193 237.345 18.2193 214.086 18.2193C185.972 18.2193 157.859 18.2193 129.747 18.2193C105.289 18.2193 80.8296 18.2193 56.3708 18.2193C44.5683 18.2193 32.7613 18.121 20.9589 18.2193C20.7912 18.2215 20.6213 18.2193 20.4536 18.2193C17.2504 18.2215 16.6893 23.222 19.9283 23.222Z" fill="#9A442B"/>
<path d="M176.463 29.3398C176.394 27.9249 175.533 27.3392 174.586 26.4272C173.991 25.855 173.421 25.2559 172.844 24.6658C171.566 23.3604 170.37 21.9745 169.266 20.5193C168.186 19.0976 167.231 17.6022 166.288 16.0888C165.329 14.5487 164.656 12.68 163.478 11.3008C162.425 10.0714 160.548 11.0013 160.706 12.5481C160.899 14.428 162.063 16.3504 162.953 17.9822C163.903 19.7257 165.054 21.3798 166.268 22.949C167.415 24.4311 168.658 25.8416 169.988 27.1626C170.732 27.9025 171.519 28.5977 172.328 29.2661C173.394 30.1468 174.163 30.7861 175.625 30.5178C176.211 30.4061 176.49 29.9009 176.463 29.3398Z" fill="#9A442B"/>
<path d="M163.467 30.8534C165.656 28.0593 167.43 24.9723 169.717 22.2362C171.986 19.5226 174.624 17.1576 176.848 14.4215C177.657 13.4246 176.419 11.9359 175.285 12.4925C171.859 14.1734 169.176 16.9788 166.785 19.9137C164.442 22.7861 162.117 25.9469 161.033 29.5144C160.581 31.0009 162.452 32.1521 163.467 30.8534Z" fill="#9A442B"/>
<path d="M56.7911 38.4589C53.7153 39.7822 49.942 39.3374 48.1202 36.2146C46.2806 33.0606 47.4541 29.4751 50.2326 27.3605C53.2347 25.076 57.2806 24.0858 60.913 23.3817C63.1103 22.9547 65.3322 22.6954 67.5675 22.5859C69.7939 22.4763 72.0092 22.6261 74.2311 22.5613C75.6259 22.5188 75.295 20.5585 74.164 20.3036C70.051 19.3715 65.3345 19.8118 61.2192 20.4936C57.4997 21.1083 53.5565 22.0449 50.2416 23.9047C47.2663 25.5723 44.7941 28.1027 44.2174 31.5763C43.672 34.8489 44.9863 38.3762 47.5525 40.4729C50.5478 42.9184 55.1794 43.1598 58.3737 41.0228C59.84 40.0437 58.3312 37.7972 56.7911 38.4589Z" fill="#9A442B"/>
<path d="M60.4862 3.69215C57.6384 1.31824 53.8451 -0.758389 49.9981 0.269859C46.9782 1.07681 44.7205 3.58709 43.8219 6.53548C41.7475 13.3398 47.0273 19.364 53.132 21.5881C55.2645 22.366 57.5825 22.7795 59.8469 22.8935C61.0338 22.9539 62.2476 22.8846 63.4346 22.8578C64.597 22.8309 65.8577 22.9047 66.991 22.6387C68.511 22.2833 68.3747 20.3073 66.9128 19.9921C65.2653 19.6344 63.4592 19.8289 61.7782 19.659C60.1576 19.4936 58.4879 19.2768 56.8963 18.9124C54.234 18.3067 51.6187 17.2047 49.6337 15.2823C47.9818 13.6818 46.7971 11.4934 46.9424 9.1463C47.0676 7.1144 48.022 4.95733 49.8461 3.90226C51.1582 3.14448 52.7431 3.17127 54.1647 3.58928C55.9306 4.10787 57.663 5.0177 59.3417 5.76429C60.6338 6.33654 61.4832 4.52369 60.4862 3.69215Z" fill="#9A442B"/>
<path d="M28.7512 34.1283C32.587 32.3557 36.3312 30.402 40.2586 28.8127C44.1704 27.2301 48.1739 25.9694 52.1773 24.655C53.4269 24.2437 52.7295 22.4086 51.5381 22.5427C47.2217 23.0255 42.9522 24.2616 38.904 25.8152C34.8492 27.3709 30.8479 29.2799 27.3608 31.8729C26.1381 32.7827 27.381 34.7632 28.7512 34.1283Z" fill="#9A442B"/>
<path d="M27.2782 8.0405C27.8147 10.0635 29.8219 11.3778 31.4537 12.5469C33.1861 13.7875 34.9923 14.9141 36.8565 15.9446C38.656 16.9393 40.6118 17.9743 42.5834 18.5711C44.6242 19.1903 46.7948 20.1358 48.9362 20.299C50.4495 20.413 50.8295 18.4437 49.5442 17.8022C47.7761 16.9192 45.7799 16.5302 44.023 15.5981C42.2235 14.6436 40.3324 13.868 38.5352 12.8956C36.8453 11.9836 35.2091 10.9755 33.6309 9.88017C32.0461 8.78039 30.3629 7.08158 28.3936 6.85582C27.7833 6.78876 27.1061 7.39002 27.2782 8.0405Z" fill="#9A442B"/>
<path d="M112.746 21.5323C101.551 19.1025 89.7196 24.4405 82.1643 32.6374C81.25 33.6276 82.1553 35.3958 83.4138 35.4629C95.3593 36.1111 107.195 32.1032 116.226 24.2348C117.498 23.1261 116.653 20.4951 114.771 20.9981C105.53 23.4569 96.5016 26.6423 87.7637 30.5317C85.5642 31.5108 87.0864 34.5285 89.2636 33.8512C92.7865 32.7559 96.2871 31.5712 99.725 30.23C103.196 28.8776 106.409 27.1407 109.663 25.3525C111.074 24.5768 110.153 22.4712 108.628 23.0613C101.761 25.7101 94.7916 28.3232 87.766 30.534C88.2667 31.6405 88.7652 32.7469 89.2659 33.8534C97.7042 30.0646 106.426 26.9776 115.374 24.6238C114.889 23.5441 114.404 22.4645 113.919 21.3871C105.644 28.5557 94.7401 32.4161 83.7893 31.9243C84.2051 32.8654 84.6231 33.8087 85.0389 34.7498C92.0757 26.9731 102.278 23.7274 112.54 23.5151C113.816 23.486 114.015 21.8073 112.746 21.5323Z" fill="#9A442B"/>
<path d="M126.549 20.0415C124.108 19.21 121.553 18.8143 119.121 17.9157C116.66 17.0082 114.275 15.9665 112.057 14.5538C107.651 11.7507 103.894 7.89481 101.325 3.33699C100.565 4.135 99.8075 4.93523 99.0475 5.73324C109.775 8.73304 121.302 12.0972 129.191 20.4461C129.705 19.4983 130.219 18.5506 130.733 17.6028C120.855 15.8726 111.469 11.9474 103.257 6.1982C102.673 7.25551 102.092 8.3128 101.509 9.3701C105.577 11.2813 109.647 13.1947 113.716 15.1059C117.625 16.9434 121.653 19.3553 125.916 20.1935C127.356 20.4752 127.868 18.4902 126.884 17.6944C123.518 14.974 118.982 13.4451 115.077 11.6367C110.998 9.74789 106.92 7.859 102.841 5.97015C100.959 5.09838 99.4029 7.97302 101.093 9.14209C109.873 15.2155 119.849 19.2592 130.364 21.0854C131.813 21.338 132.935 19.3285 131.907 18.2443C123.518 9.39469 111.708 5.77573 100.346 2.41157C98.9938 2.01144 97.2592 3.31909 98.0684 4.80781C100.878 9.97587 104.933 14.3236 109.925 17.4485C114.516 20.3232 120.788 23.0838 126.33 22.0757C127.327 21.8946 127.568 20.3902 126.549 20.0415Z" fill="#9A442B"/>
<path d="M147.831 20.8064C146.682 20.7304 145.605 20.5494 144.445 20.5829C143.343 20.6142 142.292 20.84 141.228 21.1171C138.982 21.7006 136.787 22.4851 134.699 23.5C130.557 25.514 126.884 28.3283 123.851 31.7886C122.597 33.2214 124.517 35.4411 126.147 34.6252C128.44 33.4762 130.93 33.1342 133.438 32.7475C135.933 32.363 138.374 31.8221 140.741 30.9235C145.27 29.2045 149.244 26.359 152.488 22.7824C153.786 21.3518 151.806 19.1679 150.192 19.9458C143.642 23.1066 136.936 25.9231 130.09 28.3775C127.812 29.1934 129.37 32.5821 131.634 31.7952C135.475 30.4585 139.192 28.9161 142.898 27.2464C144.17 26.6719 143.602 24.4746 142.167 24.8345C138.081 25.8582 134.071 26.9983 130.09 28.3775C130.604 29.5175 131.12 30.6552 131.634 31.7952C138.483 29.3498 145.196 26.5445 151.745 23.3837C150.981 22.4382 150.214 21.4927 149.45 20.5471C146.454 23.8487 142.616 26.312 138.412 27.7672C133.901 29.3274 128.923 29.019 124.597 31.1872C125.362 32.1328 126.129 33.0783 126.893 34.0239C129.542 30.9995 132.77 28.4981 136.373 26.7121C138.175 25.8202 140.061 25.0737 142.004 24.5528C143.953 24.032 145.931 23.2831 147.894 22.883C149.012 22.655 149.054 20.8891 147.831 20.8064Z" fill="#9A442B"/>
<path d="M160.065 20.214C159.336 17.9318 157.582 16.3559 155.807 14.8202C154.11 13.3494 152.264 12.0663 150.306 10.971C146.258 8.70437 141.838 7.25367 137.218 6.7686C135.624 6.60096 134.866 8.38918 135.684 9.59178C140.457 16.6174 148.676 21.1149 157.157 21.4077C159.093 21.4747 159.918 18.7745 157.988 18.0011C152.465 15.7926 146.801 13.1929 141.919 9.75721C141.177 10.7676 140.434 11.7779 139.692 12.7861C142.337 14.5743 145.312 15.7389 148.236 16.946C149.64 17.525 150.739 15.5154 149.514 14.6257C146.95 12.7615 144.404 10.8413 141.49 9.52026C139.583 8.65519 137.821 11.7332 139.692 12.7861C142.473 14.3485 145.173 16.0183 148.028 17.4534C150.853 18.8751 153.746 20.1492 156.694 21.2937C156.971 20.1581 157.249 19.0226 157.526 17.8871C149.832 17.6971 142.699 13.7696 138.385 7.40118C137.873 8.34225 137.363 9.28332 136.851 10.2244C140.971 10.6625 144.995 11.9053 148.625 13.9127C150.42 14.9051 152.116 16.0921 153.685 17.4132C155.313 18.7834 156.634 20.4063 158.465 21.5083C159.417 22.0738 160.391 21.2378 160.065 20.214Z" fill="#9A442B"/>
<path d="M85.8613 11.6649C85.9864 11.8706 86.1027 12.0695 86.2681 12.2461C86.3508 12.3333 86.4402 12.4898 86.5453 12.5099C86.6682 12.5345 86.362 12.3042 86.4268 12.4138C86.514 12.5613 86.6794 12.7088 86.8157 12.805C87.3008 13.1492 87.9267 13.2811 88.5101 13.2654C89.5004 13.2364 90.4482 12.8452 91.1568 12.1411C92.0062 11.2961 92.4756 10.288 92.3974 9.0742C92.337 8.12195 91.7379 7.15852 90.9422 6.64439C89.4154 5.65415 87.1712 5.83523 85.8188 7.07136C85.0119 7.80902 84.4441 8.8842 84.5782 10.0041C84.6855 10.896 85.6489 11.5174 86.3821 11.8907C86.8426 12.1254 87.359 12.2506 87.8619 12.3467C90.0391 12.7625 92.6455 11.7544 93.7855 9.80964C94.0269 9.39834 94.2169 8.93787 94.1118 8.4461C94.009 7.9655 93.7721 7.61009 93.3988 7.28597C91.4988 5.63183 88.8544 4.93214 86.3777 5.27638C85.5506 5.39038 84.994 6.10125 84.8666 6.88138C84.7548 7.55868 84.8196 8.26725 85.0588 8.91103C85.3025 9.5615 85.7495 10.0868 86.2569 10.5473C87.2606 11.4638 88.7203 11.7052 89.9631 11.1329C90.5577 10.8602 90.9846 10.1472 90.8438 9.48551C90.703 8.81715 90.1844 8.29407 89.4915 8.21136C89.4378 8.20689 89.3819 8.19796 89.3283 8.18902C89.1584 8.15326 89.2188 8.16891 89.5116 8.23821C89.4423 8.20691 89.3573 8.18231 89.2858 8.15996C89.1673 8.10631 89.1852 8.11974 89.3372 8.20021C89.4848 8.28739 89.5048 8.29633 89.3975 8.22927C89.2075 8.08397 88.9907 7.98114 88.7806 7.86714C88.9192 7.94314 89.0578 8.01912 89.1964 8.09512C88.9527 7.95206 88.7269 7.7956 88.5213 7.60113C88.6353 7.71066 88.7516 7.8202 88.8656 7.92973C88.727 7.78891 88.604 7.63913 88.4945 7.47149C88.5794 7.60784 88.6622 7.74418 88.7471 7.87829C88.6018 7.64359 88.4878 7.38651 88.3984 7.12498C88.4453 7.27922 88.4922 7.43349 88.5392 7.58773C88.49 7.42678 88.4587 7.26807 88.4453 7.10042C88.4498 7.2636 88.4543 7.42676 88.4587 7.58994C88.4565 7.47594 88.4677 7.36866 88.4855 7.25466C87.9826 7.7889 87.4774 8.32538 86.9745 8.85962C87.2293 8.82162 87.4841 8.79928 87.7434 8.7881C87.5802 8.79257 87.4193 8.79703 87.2562 8.8015C87.9022 8.78362 88.5414 8.85068 89.1696 8.99821C89.0131 8.96021 88.8544 8.92222 88.6979 8.88422C89.326 9.04069 89.9251 9.27314 90.4906 9.58385C90.3543 9.50784 90.218 9.43408 90.0794 9.35808C90.5018 9.59726 90.8952 9.87223 91.2618 10.1896C91.1322 9.34916 91.0048 8.50645 90.8751 7.66597C90.7611 7.86268 90.627 8.03477 90.4884 8.21136C90.3096 8.43936 90.7634 7.9588 90.6293 8.0661C90.5823 8.1041 90.5398 8.15325 90.4951 8.19349C90.4124 8.26726 90.3274 8.33654 90.238 8.4036C90.0994 8.50866 89.7619 8.66068 90.2917 8.38798C90.1934 8.43939 90.0995 8.4975 89.9989 8.54668C89.7865 8.64951 89.5652 8.73443 89.3394 8.80372C89.4892 8.75901 89.6367 8.71433 89.7865 8.66739C89.4244 8.77245 89.0578 8.83279 88.6823 8.84844C88.8432 8.84397 89.0042 8.8395 89.1651 8.83503C88.7896 8.84621 88.423 8.81045 88.0564 8.72998C88.2129 8.76798 88.3693 8.80597 88.5235 8.84397C88.1346 8.74785 87.7837 8.59363 87.4305 8.4081C87.5646 8.48186 87.701 8.55785 87.8351 8.63161C87.6607 8.53549 87.4953 8.42595 87.3366 8.30301C87.5668 8.67855 87.7971 9.05186 88.0273 9.42739C88.0229 9.38716 88.0206 9.34917 88.0206 9.30893C88.0251 9.46541 88.0296 9.61964 88.034 9.77611C88.034 9.62411 88.0497 9.47655 88.0832 9.32902C88.0474 9.47879 88.0117 9.62635 87.9737 9.77611C88.0027 9.67105 88.0586 9.5727 88.0855 9.46764C87.9893 9.85211 87.8597 9.82081 87.9848 9.66434C88.0161 9.62411 88.0564 9.5794 88.0855 9.5347C88.2106 9.34469 87.7591 9.82751 87.9402 9.68668C87.9826 9.65315 88.0229 9.61069 88.0653 9.57716C88.11 9.5414 88.1547 9.51009 88.1994 9.47432C88.338 9.36926 88.4453 9.40949 88.0251 9.57938C88.1301 9.53691 88.2285 9.4721 88.3358 9.42739C88.3895 9.40504 88.4453 9.38716 88.499 9.3648C88.7292 9.27315 88.0497 9.47434 88.3068 9.42292C88.5392 9.37598 88.7605 9.3335 88.9974 9.32455C88.8477 9.32903 88.6979 9.33352 88.5482 9.33799C88.6912 9.33576 88.8343 9.34243 88.9773 9.36255C89.0421 9.37149 89.107 9.38939 89.1718 9.39833C88.6398 9.33798 88.8074 9.30443 88.9773 9.36255C89.0377 9.3849 89.0958 9.40727 89.1561 9.43186C89.4758 9.55927 88.8298 9.20385 89.0176 9.35361C89.06 9.38714 89.107 9.41622 89.1494 9.44751C89.4266 9.64869 88.9013 9.14574 89.0421 9.34021C89.0734 9.38492 89.1114 9.42738 89.1472 9.46986C89.2388 9.60174 89.1964 9.52799 89.0176 9.25081C89.0377 9.28434 89.0556 9.31785 89.0734 9.35361C89.098 9.4095 89.1226 9.46763 89.1494 9.52351C89.2545 9.76716 89.0466 9.05408 89.1114 9.42514C89.1226 9.48773 89.1226 9.55032 89.1316 9.61291C89.0533 9.08314 89.1316 9.28881 89.107 9.47658C89.069 9.77164 89.1249 9.34915 89.1629 9.28656C89.1249 9.34915 89.1114 9.44973 89.0824 9.52126C89.0533 9.58832 88.9125 9.85435 89.0757 9.55929C89.2389 9.26199 89.0869 9.52574 89.0444 9.5861C88.9997 9.64645 88.9527 9.70456 88.9058 9.76268C88.7046 10.022 89.1986 9.4922 88.9952 9.67103C88.879 9.77385 88.7627 9.86775 88.6375 9.96163C88.4274 10.1181 89.0488 9.73138 88.7135 9.91245C88.6554 9.94374 88.5973 9.9728 88.537 9.99963C88.3984 10.0622 88.2598 10.1226 88.1212 10.1807C87.8865 10.2813 88.575 10.0689 88.2106 10.1539C88.1503 10.1673 88.0877 10.1785 88.0251 10.1896C87.9446 10.2031 87.8641 10.2165 87.7837 10.2276C87.4953 10.2701 87.8954 10.1919 87.9379 10.2299C87.8977 10.2299 87.8574 10.2276 87.8172 10.2232C87.6696 10.2165 87.5244 10.2209 87.3791 10.241C87.3098 10.2478 87.2427 10.2612 87.1712 10.2656C87.3969 10.2902 87.6227 10.3126 87.8507 10.3372C87.7703 10.3148 87.692 10.2902 87.6138 10.2589C87.3255 10.1382 87.7814 10.3707 87.6004 10.2544C87.1824 9.98621 86.59 9.93703 86.1921 10.288C85.8367 10.6032 85.5908 11.2223 85.8613 11.6649Z" fill="#9A442B"/>
<path d="M75.4203 11.1993C75.3957 11.1881 75.3712 11.1747 75.3488 11.1635C75.4427 11.2149 75.5388 11.2686 75.6327 11.32C75.5589 11.2775 75.4896 11.2283 75.427 11.1702C75.5052 11.2462 75.5835 11.32 75.6617 11.396C75.5969 11.3334 75.5411 11.2641 75.4919 11.1881C75.55 11.282 75.6081 11.3759 75.6662 11.4697C75.6104 11.3781 75.5679 11.282 75.5366 11.1792C75.5701 11.2887 75.6037 11.3982 75.6372 11.5077C75.6014 11.3848 75.5835 11.2619 75.5791 11.1345C75.5813 11.2552 75.5857 11.3781 75.5902 11.4988C75.5879 11.4809 75.5902 11.4653 75.5969 11.4496C75.5679 11.5681 75.5388 11.6866 75.5098 11.8073C75.5388 11.7223 75.579 11.6441 75.6103 11.5614C75.6885 11.3535 75.6975 11.13 75.7467 10.9154C75.7154 11.045 75.6841 11.1724 75.6528 11.3021C75.693 11.1412 75.7511 10.9869 75.8316 10.8416C75.769 10.9556 75.7065 11.0674 75.6439 11.1814C75.7065 11.0719 75.7802 10.969 75.8674 10.8774C75.778 10.969 75.6908 11.0629 75.6014 11.1546C75.6707 11.083 75.7467 11.0227 75.8294 10.969C75.7199 11.0361 75.6104 11.1054 75.5008 11.1725C75.5791 11.1255 75.6595 11.0875 75.7444 11.0607C75.6192 11.0987 75.4941 11.1367 75.3667 11.1747C75.4561 11.1479 75.5477 11.1322 75.6416 11.13C75.5053 11.1345 75.3689 11.1389 75.2326 11.1412C75.3287 11.1389 75.4248 11.1501 75.5187 11.1702C75.3846 11.1389 75.2527 11.1054 75.1208 11.0741C75.208 11.0964 75.2929 11.13 75.3734 11.1725C75.2572 11.1076 75.1409 11.045 75.0247 10.9802C75.1096 11.0294 75.1856 11.0875 75.2571 11.1546C75.161 11.0629 75.0672 10.9735 74.971 10.8818C75.0471 10.9578 75.1141 11.0406 75.17 11.1322C75.1007 11.0204 75.0314 10.9064 74.9621 10.7947C75.0381 10.9198 75.0962 11.0517 75.1387 11.1903C75.1007 11.0607 75.0605 10.9311 75.0202 10.8036C75.0806 11.0115 75.1029 11.2306 75.1118 11.4474C75.1074 11.3088 75.1029 11.168 75.1007 11.0294C75.1029 11.1747 75.0918 11.3178 75.0582 11.4586C75.0895 11.3245 75.1231 11.1926 75.1543 11.0585C75.1275 11.1702 75.0872 11.2775 75.0314 11.3803C75.0939 11.2663 75.1566 11.1523 75.2214 11.0383C75.1879 11.0987 75.1477 11.1523 75.1074 11.2082C74.9979 11.358 74.933 11.5323 74.8481 11.6955C74.9084 11.5882 74.9666 11.4809 75.0269 11.3714C75.0023 11.4161 74.9732 11.4563 74.9442 11.4988C74.7296 11.8095 74.6156 12.1761 74.6782 12.5583C74.7654 13.0881 75.1744 13.486 75.6886 13.6089C76.0417 13.6939 76.3413 13.6447 76.6721 13.5441C76.9046 13.4726 77.0834 13.3944 77.2779 13.2289C77.4075 13.1194 77.5327 12.9808 77.6378 12.8422C77.944 12.4443 78.0804 12.0018 78.1765 11.5189C78.2502 11.159 78.2324 10.7701 78.1385 10.4169C78.0111 9.92962 77.8434 9.5116 77.5282 9.10924C77.2443 8.74488 76.8375 8.43641 76.4039 8.27099C76.234 8.20617 76.0507 8.17043 75.8741 8.13466C75.816 8.12125 75.7556 8.11229 75.6975 8.10782C75.4538 8.09217 75.1901 8.09218 74.9509 8.15254C74.7252 8.20842 74.4949 8.27101 74.2915 8.38949C73.9338 8.59737 73.7483 8.7516 73.4689 9.05784C73.337 9.20313 73.2498 9.36184 73.1559 9.53396C73.0621 9.70384 72.9749 9.86477 72.9212 10.0525C72.8519 10.2962 72.7782 10.5577 72.7603 10.8148C72.7357 11.1367 72.7849 11.4228 72.9101 11.7201C72.9347 11.7804 72.9659 11.8363 72.9928 11.8945C72.9592 11.7827 72.9235 11.6687 72.89 11.5569C72.9883 12.0017 73.1448 12.4153 73.4354 12.7752C73.7036 13.106 74.0971 13.4011 74.5106 13.5151C74.8437 13.6067 75.1521 13.638 75.4762 13.4905C75.7489 13.3675 76.0239 13.0993 76.1222 12.8109C76.2273 12.5025 76.2496 12.1448 76.0976 11.8431C75.9479 11.5435 75.7243 11.3446 75.4203 11.1993Z" fill="#9A442B"/>
<path d="M73.0978 26.7405C72.758 26.5013 72.4607 26.4052 72.0538 26.3382C71.998 26.3292 71.9421 26.3292 71.8862 26.327C71.7789 26.3203 71.7253 26.3203 71.5867 26.3248C71.3028 26.3337 71.2156 26.3494 70.9027 26.4678C70.8848 26.4745 70.8669 26.4812 70.8513 26.488C70.6054 26.5908 70.3662 26.7383 70.1628 26.9104C69.8186 27.2055 69.6174 27.4849 69.4229 27.8895C69.1189 28.5243 69.1837 29.3715 69.5257 29.9795C69.6286 30.165 69.7537 30.3863 69.9013 30.5562C70.051 30.7283 70.2231 30.8893 70.3997 31.0346C70.6478 31.2402 70.9608 31.3833 71.2715 31.4638C71.6135 31.5532 71.9533 31.6381 72.3064 31.6672C72.4115 31.6761 72.5188 31.6806 72.6239 31.6828C72.9435 31.6895 73.4085 31.6985 73.6991 31.5219C73.9405 31.4124 74.1395 31.2492 74.2982 31.0368C74.4256 30.8759 74.506 30.6948 74.5373 30.4936C74.6044 30.2969 74.6156 30.0958 74.5731 29.8879C74.5284 29.6241 74.4211 29.3894 74.2557 29.1815C74.2065 29.1279 74.1551 29.0787 74.0992 29.0295C74.0142 28.9244 73.9092 28.8484 73.7818 28.797C73.7013 28.7523 73.6365 28.7143 73.556 28.6786C73.5136 28.6607 73.4711 28.6383 73.4286 28.6227C73.3437 28.5914 73.2587 28.5646 73.1738 28.5333C72.9994 28.4662 72.8273 28.3902 72.6641 28.3008C72.7938 28.3723 72.9234 28.4439 73.0531 28.5154C72.9301 28.4461 72.8116 28.3701 72.7021 28.2807C72.597 28.1935 72.483 28.1197 72.3824 28.0258C72.492 28.1309 72.6038 28.236 72.7133 28.341C72.6395 28.2673 72.5724 28.189 72.5166 28.0996C72.597 28.2293 72.6753 28.3567 72.7558 28.4863C72.7066 28.4036 72.6663 28.3164 72.635 28.2248C72.6798 28.3723 72.7245 28.5176 72.7692 28.6652C72.7557 28.616 72.7468 28.5668 72.7446 28.5154C72.7491 28.6741 72.7535 28.8305 72.758 28.9892C72.7557 28.9356 72.7625 28.882 72.7737 28.8283C72.7357 28.9826 72.6999 29.1346 72.6619 29.2888C72.6775 29.2307 72.6999 29.1748 72.7267 29.1234C72.653 29.2575 72.5792 29.3894 72.5054 29.5235C72.5412 29.4587 72.5859 29.4006 72.6373 29.3469C72.5345 29.4542 72.4294 29.5637 72.3266 29.671C72.3936 29.6017 72.4674 29.5436 72.5479 29.4922C72.4205 29.5704 72.2953 29.6487 72.1679 29.7269C72.2081 29.7023 72.2506 29.68 72.2931 29.6599C72.6083 29.5123 72.8429 29.3313 73.0598 29.0541C72.9592 29.1614 72.8564 29.2665 72.7558 29.3738C72.7692 29.3626 72.7803 29.3514 72.796 29.3424C72.673 29.4184 72.5479 29.4944 72.4249 29.5727C72.4875 29.5347 72.5524 29.5034 72.6217 29.481C72.4853 29.5213 72.349 29.5637 72.2148 29.604C72.264 29.5906 72.3131 29.5794 72.3623 29.5771C72.2193 29.5816 72.0762 29.5861 71.9332 29.5906C71.9533 29.5906 71.9712 29.5906 71.9913 29.5928C72.1321 29.5883 72.2752 29.5839 72.416 29.5816C72.6261 29.5548 72.8139 29.4788 72.9815 29.3558C73.1067 29.2977 73.2118 29.215 73.2945 29.1033C73.451 28.9669 73.5627 28.797 73.632 28.5958C73.7237 28.3254 73.755 28.0415 73.7192 27.7576C73.6924 27.5475 73.6164 27.3597 73.4934 27.1921C73.4062 27.0088 73.2721 26.859 73.0978 26.7405Z" fill="#9A442B"/>
<path d="M197.435 22.509C200.171 26.3269 204.698 29.1099 208.985 30.8691C213.474 32.711 218.34 33.4017 223.168 33.053C224.963 32.9233 225.003 30.6746 223.968 29.7022C217.544 23.6758 208.404 20.571 199.639 21.6126C197.905 21.8183 197.685 24.4023 199.284 24.9902C205.002 27.0914 210.594 29.5368 216.473 31.1775C218.007 31.6045 218.785 29.615 217.372 28.8841C211.949 26.0832 206.189 24.067 200.569 21.7109C200.451 22.8353 200.332 23.9619 200.214 25.0885C208.171 24.5006 215.959 27.221 221.753 32.7154C222.021 31.5978 222.287 30.4824 222.553 29.3647C218.331 29.6464 214.097 28.864 210.183 27.2814C206.106 25.6317 202.959 23.0007 199.708 20.1216C198.233 18.8095 196.391 21.0538 197.435 22.509Z" fill="#9A442B"/>
<path d="M214.898 21.5391C220.855 22.4422 227.149 20.692 232.595 18.3225C238.241 15.8659 243.246 12.2581 247.464 7.78746C248.318 6.88439 247.654 5.32187 246.635 4.92175C240.749 2.61937 234.448 6.82177 229.389 9.45498C223.58 12.4794 217.909 15.7474 212.352 19.2122C210.554 20.3321 212.423 23.3363 214.299 22.3684C219.006 19.9387 223.781 17.6519 228.634 15.5261C233.361 13.4517 238.494 11.9027 242.835 9.07051C244.001 8.3105 242.996 6.56697 241.786 6.73686C236.663 7.45663 231.77 10.0093 227.085 12.0949C222.247 14.2497 217.473 16.5454 212.761 18.9618C213.409 20.0147 214.059 21.0675 214.708 22.1203C219.654 19.0535 224.717 16.1721 229.872 13.4719C232.362 12.1687 234.868 10.8744 237.418 9.69193C239.842 8.56756 242.604 7.45437 245.262 8.42897C244.985 7.47449 244.71 6.52004 244.433 5.56333C240.68 9.71655 236.057 13.0382 230.965 15.3495C225.797 17.6944 220.363 18.5103 214.837 19.543C213.704 19.7531 213.775 21.3693 214.898 21.5391Z" fill="#9A442B"/>
<path d="M229.007 21.9638C231.262 22.7819 233.694 22.8825 236.03 23.3586C238.485 23.8593 240.921 24.5925 243.257 25.4956C247.897 27.2861 252.149 29.9148 255.873 33.2075C256.302 32.0987 256.731 30.99 257.161 29.8791C247.699 28.8844 238.771 25.1156 231.423 19.0758C230.849 20.1152 230.276 21.1569 229.702 22.1963C234.758 24.3511 239.882 27.1632 245.275 28.3412C246.632 28.6362 247.31 26.5931 246.234 25.8644C243.932 24.3042 241.348 23.2491 238.802 22.1672C236.204 21.063 233.607 19.9654 231.014 18.85C229.072 18.014 227.777 20.7165 229.295 21.9705C237.092 28.4261 246.715 32.4586 256.774 33.5517C258.721 33.764 259.365 31.3834 258.061 30.2233C254.06 26.6624 249.4 23.8728 244.375 22.0107C241.929 21.1054 239.412 20.4416 236.839 20.0236C234.228 19.5988 231.519 19.2568 228.96 20.0995C228.119 20.3812 228.24 21.6844 229.007 21.9638Z" fill="#9A442B"/>
<path d="M232.811 22.015C238.266 23.0454 244.529 21.5724 249.663 19.7193C255.055 17.7723 260.015 14.6406 264.142 10.6707C265.25 9.60447 264.604 7.10539 262.765 7.60834C252.632 10.3891 242.913 14.2226 233.522 18.9213C231.627 19.8691 232.946 22.8465 234.884 21.9345C241.391 18.8766 248.231 16.7284 255.055 14.511C256.452 14.0572 255.69 11.9448 254.331 12.1237C247.041 13.0804 240.103 15.7225 233.522 18.9213C233.976 19.9249 234.43 20.9286 234.884 21.9323C243.914 17.2604 253.517 13.6526 263.332 11.0306C262.874 10.0113 262.416 8.98974 261.955 7.97043C258.046 11.6788 253.475 14.511 248.434 16.4133C246 17.332 243.476 17.9914 240.908 18.4027C238.187 18.8386 235.456 18.8117 232.722 19.0554C230.943 19.2163 231.256 21.7221 232.811 22.015Z" fill="#9A442B"/>
<path d="M265.682 21.8072C266.554 22.1224 267.329 22.6142 268.219 22.9025C269.106 23.1886 270.054 23.3585 270.984 23.4166C272.734 23.5284 274.543 23.3831 276.259 23.0366C279.615 22.3593 283.023 20.8952 285.471 18.4475C287.776 16.1429 289.421 12.7921 288.29 9.52187C287.309 6.68525 284.407 4.38733 281.311 5.24793C280.059 5.59664 280.337 7.31563 281.642 7.2374C283.821 7.10999 285.447 9.59119 285.496 11.5627C285.556 13.9568 283.634 15.9596 281.834 17.2583C279.65 18.832 277.024 19.7775 274.37 20.1598C273.054 20.3498 271.762 20.3453 270.436 20.3185C269.16 20.2939 267.577 20.4392 266.352 20.0994C265.237 19.791 264.551 21.4004 265.682 21.8072Z" fill="#9A442B"/>
<path d="M268.764 22.4426C268.93 22.4515 269.095 22.4604 269.263 22.4694C269.028 22.342 268.791 22.2123 268.556 22.0849C269.236 23.1266 270.671 22.903 271.755 22.8919C272.862 22.8807 273.97 22.9008 275.075 22.988C277.174 23.1489 279.23 23.5222 281.137 24.4499C281.564 24.6578 281.966 24.9036 282.355 25.1764C282.516 25.2881 282.672 25.4044 282.824 25.5273C282.887 25.5787 283.236 25.8894 283.122 25.7799C283.41 26.0593 283.672 26.3745 283.911 26.6964C284.192 27.0742 284.251 27.168 284.429 27.5033C284.847 28.2835 285.082 28.9093 285.234 29.6068C285.312 29.9666 285.37 30.331 285.404 30.6976C285.413 30.7893 285.433 31.1983 285.433 31.0933C285.431 30.9122 285.429 31.2073 285.429 31.214C285.422 31.3615 285.417 31.5112 285.406 31.6588C285.373 32.0634 285.317 32.4702 285.234 32.8681C285.192 33.076 285.234 32.8591 285.243 32.8256C285.194 33.0335 285.149 33.2436 285.091 33.447C285.172 33.1654 284.993 33.7131 284.957 33.8069C284.691 34.5021 284.36 34.9939 283.734 35.593C282.748 36.5385 283.681 38.016 284.961 37.5824C286.756 36.9789 288.223 35.3359 288.712 33.4493C289.253 31.3615 288.949 29.1463 288.153 27.1613C286.3 22.532 281.642 20.3838 276.932 19.8496C275.537 19.6909 274.131 19.6797 272.73 19.7155C271.952 19.7356 271.163 19.7423 270.392 19.8407C269.477 19.9569 268.829 20.1759 268.395 21.041C268.664 20.8242 268.934 20.6051 269.202 20.3883C269.037 20.4151 268.872 20.4442 268.708 20.471C267.626 20.6521 267.615 22.3822 268.764 22.4426Z" fill="#9A442B"/>
<path d="M279.203 22.3418C281.358 23.2404 283.669 23.6405 285.918 24.282C288.1 24.9057 290.27 25.5763 292.405 26.3452C296.744 27.9055 300.964 29.7586 305.269 31.3993C306.465 31.8553 307.37 30.2168 306.347 29.4434C302.506 26.5308 298.063 24.434 293.529 22.8358C291.312 22.0534 289.065 21.3649 286.783 20.8016C284.34 20.1981 281.997 19.6258 279.48 19.7063C278.043 19.751 278.063 21.8656 279.203 22.3418Z" fill="#9A442B"/>
<path d="M280.665 20.5621C285.055 19.6478 289.251 17.8842 293.312 16.0155C295.309 15.0967 297.341 14.0998 299.196 12.9195C301.071 11.7281 303.177 10.5992 304.815 9.08816C305.821 8.16274 304.862 6.54439 303.561 7.05405C301.59 7.823 299.748 9.00099 297.828 9.89288C295.823 10.825 293.858 11.8555 291.864 12.8122C287.934 14.6966 283.844 16.1943 279.896 18.0272C278.557 18.6487 279.145 20.8795 280.665 20.5621Z" fill="#9A442B"/>
<path d="M269.057 35.9744C269.146 36.1889 269.274 36.3857 269.401 36.5779C269.408 36.5891 269.466 36.6718 269.466 36.6718C269.488 36.6651 269.267 36.3991 269.363 36.5086C269.484 36.6472 269.542 36.8104 269.676 36.94C269.739 37.0004 269.799 37.0585 269.864 37.1121C270.166 37.3603 270.528 37.4922 270.868 37.6688C270.673 37.5257 270.481 37.3849 270.286 37.244C270.637 37.7068 271.181 37.9079 271.744 37.937C272.09 37.9549 272.448 37.9437 272.79 37.8901C273.481 37.7805 274.185 37.5123 274.755 37.0987C275.32 36.6874 275.745 36.1264 276.045 35.5005C276.192 35.1898 276.277 34.8321 276.322 34.4968C276.337 34.3895 276.34 34.28 276.337 34.1727C276.335 33.9872 276.337 33.7994 276.317 33.6161C276.266 33.1579 275.978 32.8069 275.642 32.5208C274.891 31.8793 274.019 31.4009 273.051 31.193C272.616 31.0991 272.148 31.0522 271.706 31.1349C271.185 31.231 270.778 31.4523 270.351 31.7519C270.038 31.9709 269.741 32.2459 269.535 32.57C269.178 33.1355 269.03 33.7413 269.108 34.403C269.175 34.9663 269.468 35.4804 269.873 35.8671C270.365 36.3365 270.982 36.5243 271.652 36.4617C272.591 36.3723 273.396 35.6078 273.751 34.7696C273.979 34.2308 273.984 33.6049 273.76 33.064C273.63 32.7511 273.389 32.456 273.119 32.2526C272.79 32.0089 272.481 31.9351 272.09 31.8457C272.233 31.8815 272.379 31.915 272.524 31.9508C271.733 31.5954 270.729 31.801 270.087 32.3666C269.345 33.0237 269.006 34.1124 269.435 35.0422C269.656 35.5206 270.025 35.914 270.523 36.104C270.881 36.2404 271.317 36.2873 271.692 36.2247C272.356 36.1152 273.054 35.6592 273.244 34.9774C273.376 34.508 273.322 34.0542 272.953 33.701C272.616 33.3769 272.095 33.2741 271.661 33.4731C271.494 33.5491 272.014 33.4149 271.746 33.4373C271.86 33.435 271.976 33.4306 272.09 33.4283C272.03 33.4283 271.974 33.4216 271.914 33.4082C272.032 33.4373 272.151 33.4663 272.269 33.4954C272.122 33.4507 271.967 33.4172 271.818 33.3859C271.938 33.4149 272.061 33.444 272.182 33.4753C272.14 33.4529 272.095 33.4351 272.052 33.4149C272.162 33.4753 272.274 33.5356 272.383 33.5982C272.314 33.558 272.253 33.5111 272.195 33.4574C272.291 33.5491 272.388 33.6407 272.481 33.7301C272.45 33.6943 272.421 33.6608 272.394 33.6206C272.466 33.7368 272.537 33.8531 272.609 33.9693C272.495 33.7838 272.388 33.5938 272.262 33.4149C272.336 33.5356 272.41 33.6541 272.484 33.7748C272.459 33.7301 272.439 33.6899 272.421 33.6407C272.464 33.7771 272.504 33.9134 272.546 34.0498C272.531 33.9939 272.524 33.9447 272.522 33.8866C272.526 34.0341 272.531 34.1816 272.535 34.3292C272.537 34.2711 272.544 34.2196 272.558 34.1638C272.522 34.3068 272.488 34.4521 272.452 34.5952C272.47 34.5393 272.493 34.4924 272.519 34.441C272.45 34.5661 272.381 34.6913 272.312 34.8165C272.343 34.7673 272.376 34.7226 272.414 34.6801C272.316 34.7829 272.22 34.8836 272.122 34.9864C272.178 34.9305 272.236 34.8835 272.3 34.8411C272.18 34.9148 272.059 34.9886 271.941 35.0646C272.008 35.0266 272.077 34.9975 272.151 34.9752C272.014 35.0177 271.876 35.0579 271.739 35.1004C271.797 35.087 271.849 35.0803 271.907 35.078C271.759 35.0825 271.61 35.087 271.462 35.0914C271.52 35.0937 271.572 35.1004 271.628 35.1138C271.485 35.078 271.339 35.0445 271.196 35.0087C271.386 35.0735 271.578 35.1182 271.777 35.1652C271.632 35.1294 271.489 35.0959 271.344 35.0601C271.382 35.0713 271.415 35.0847 271.449 35.1004C271.324 35.0311 271.198 34.9618 271.071 34.8925C271.1 34.9104 271.127 34.926 271.154 34.9483C271.051 34.85 270.948 34.7516 270.845 34.6555C270.868 34.6779 270.885 34.698 270.903 34.7226C270.83 34.6019 270.754 34.4812 270.68 34.3605C270.695 34.3873 270.707 34.4096 270.718 34.4387C270.675 34.3023 270.635 34.1638 270.593 34.0274C270.604 34.0677 270.611 34.1034 270.613 34.1459C270.608 33.9983 270.604 33.8486 270.599 33.701C270.599 33.7569 270.593 33.8084 270.581 33.862C270.617 33.7167 270.651 33.5736 270.687 33.4283C270.664 33.5111 270.631 33.587 270.59 33.663C270.66 33.5379 270.729 33.4105 270.798 33.2853C270.745 33.3769 270.682 33.4574 270.611 33.5356C270.709 33.4328 270.807 33.33 270.906 33.2272C270.841 33.292 270.771 33.3501 270.693 33.4015C270.814 33.3278 270.935 33.2518 271.055 33.178C270.991 33.2182 270.926 33.2495 270.854 33.2741C270.993 33.2316 271.131 33.1914 271.268 33.1489C271.21 33.1646 271.154 33.1758 271.096 33.178C271.245 33.1735 271.395 33.1691 271.543 33.1646C271.496 33.1646 271.451 33.1579 271.406 33.1467C271.552 33.1824 271.697 33.2182 271.842 33.2518C271.806 33.2406 271.775 33.2294 271.744 33.2115C271.871 33.2808 271.996 33.3501 272.124 33.4216C272.077 33.3948 272.039 33.3657 271.999 33.33C272.102 33.4283 272.204 33.5267 272.307 33.625C272.258 33.5759 272.218 33.5222 272.18 33.4663C272.254 33.587 272.329 33.71 272.405 33.8307C272.37 33.7703 272.343 33.7122 272.318 33.6452C272.361 33.7838 272.403 33.9224 272.443 34.061C272.419 33.9805 272.406 33.9 272.401 33.8151C272.406 33.9648 272.41 34.1146 272.414 34.2643C272.414 34.1615 272.426 34.0632 272.45 33.9626C272.414 34.1079 272.379 34.2532 272.343 34.3985C272.397 34.204 272.45 34.0095 272.49 33.8106C272.455 33.9559 272.419 34.1012 272.385 34.2465C272.417 34.1235 272.461 34.0073 272.522 33.8933C272.455 34.0162 272.388 34.1369 272.318 34.2599C272.383 34.1436 272.455 34.0386 272.542 33.9358C272.45 34.0319 272.359 34.128 272.265 34.2241C272.345 34.1414 272.437 34.0766 272.535 34.0162C272.423 34.0855 272.309 34.1548 272.198 34.2241C272.296 34.1682 272.397 34.1213 272.504 34.0855C272.376 34.1235 272.249 34.1637 272.122 34.2018C272.238 34.1682 272.35 34.1503 272.47 34.1436C272.334 34.1481 272.198 34.1526 272.059 34.1548C272.211 34.1503 272.359 34.1571 272.506 34.1883C272.374 34.1571 272.242 34.1235 272.11 34.0922C272.327 34.1526 272.533 34.2398 272.732 34.3471C272.613 34.2822 272.495 34.2174 272.376 34.1526C272.868 34.432 273.302 34.8165 273.731 35.1831C273.516 34.8344 273.302 34.4857 273.087 34.1369C273.092 34.1861 273.094 34.2331 273.096 34.2822C273.092 34.137 273.087 33.9917 273.083 33.8441C273.083 34.014 273.065 34.1794 273.025 34.3471C273.06 34.204 273.094 34.0632 273.127 33.9201C273.085 34.0788 273.025 34.2308 272.949 34.3761C273.018 34.2509 273.085 34.128 273.154 34.0028C273.052 34.1884 272.926 34.356 272.781 34.508C272.877 34.4074 272.975 34.3046 273.072 34.204C272.857 34.4231 272.602 34.6131 272.341 34.774C272.459 34.7003 272.578 34.6287 272.696 34.5549C272.466 34.6935 272.22 34.8031 271.963 34.8835C272.095 34.8433 272.224 34.8031 272.356 34.7651C272.086 34.8456 271.811 34.8947 271.529 34.9037C271.666 34.8992 271.804 34.8947 271.941 34.8925C271.795 34.8947 271.652 34.8902 271.507 34.8925C271.111 34.9037 270.836 35.0534 270.51 35.2591C270.615 35.1942 270.72 35.1294 270.823 35.0646C270.812 35.0713 270.803 35.078 270.792 35.0847C270.908 35.0489 271.024 35.0132 271.14 34.9774C271.127 34.9774 271.111 34.9797 271.098 34.9797C271.223 34.9752 271.348 34.9729 271.473 34.9685C271.371 34.9573 271.27 34.9417 271.167 34.9171C271.286 34.9461 271.404 34.9752 271.523 35.002C271.435 34.9796 271.35 34.9551 271.266 34.9238C271.225 34.9081 271.185 34.888 271.143 34.8724C271.029 34.8165 271.087 34.8522 271.319 34.9752C271.181 34.8657 271.026 34.7986 270.856 34.7718C270.318 34.6399 271.143 34.8813 270.879 34.7696C270.769 34.7226 271.181 34.9685 271.002 34.8321C270.919 34.7673 270.644 34.5192 270.946 34.812C270.539 34.4164 270 34.2509 269.484 34.5706C269.017 34.8567 268.836 35.4513 269.057 35.9744Z" fill="#9A442B"/>
<path d="M232.481 40.1997C232.626 40.3696 232.769 40.5372 232.914 40.7071C232.827 40.5126 232.74 40.3181 232.653 40.1259C232.66 40.0678 232.664 40.0097 232.671 39.9493C232.664 40.1125 232.668 40.2757 232.68 40.4389C232.733 40.7652 232.89 41.0022 233.084 41.2548C233.247 41.4649 233.42 41.6705 233.589 41.8762C233.978 42.3434 234.387 42.7368 235.027 42.8172C235.308 42.853 235.617 42.8195 235.903 42.7859C236.697 42.6943 237.49 42.3322 238.098 41.8181C239.236 40.8591 239.886 39.2429 239.965 37.7833C240.056 36.0979 239.56 34.5041 238.288 33.3551C237.575 32.7113 236.609 32.2732 235.644 32.4587C234.7 32.6376 233.741 33.0824 233.033 33.7374C231.461 35.1881 230.777 37.3183 231.439 39.3815C232.022 41.1966 233.811 42.3433 235.621 42.6339C236.527 42.7792 237.577 42.6138 238.404 42.2182C239.386 41.7488 240.099 40.9977 240.584 40.0387C241.415 38.3935 241.078 36.2677 240.005 34.8237C239.323 33.9072 238.319 33.326 237.208 33.1092C236.055 32.8835 234.906 33.2746 233.96 33.9184C233.131 34.4862 232.44 35.434 232.152 36.3974C231.973 36.992 231.917 37.6291 232.065 38.2371C232.228 38.9144 232.57 39.3882 233.1 39.8241C233.726 40.3405 234.975 39.8912 234.948 39.006C234.946 38.9054 234.948 38.8048 234.96 38.702C234.986 38.4539 234.969 38.6171 234.926 38.7668C234.989 38.5344 235.018 38.3667 235.045 38.1454C235.067 37.9666 235.163 37.8839 235.011 38.2259C235.087 38.0538 235.134 37.8593 235.206 37.6827C235.248 37.5776 235.293 37.4748 235.34 37.3698C235.458 37.1015 235.116 37.7073 235.297 37.4502C235.413 37.2848 235.548 37.1328 235.666 36.9719C235.366 37.3809 235.545 37.0993 235.675 36.992C235.742 36.9361 235.811 36.8869 235.881 36.8333C236.126 36.6388 235.478 37.03 235.827 36.8646C235.916 36.8221 236.004 36.7751 236.095 36.7371C236.147 36.7148 236.2 36.6947 236.254 36.6768C235.957 36.7618 235.876 36.7863 236.013 36.7506C236.109 36.7371 236.203 36.7059 236.301 36.6925C236.703 36.6366 236.162 36.6656 236.151 36.6835C236.173 36.65 236.448 36.7059 236.489 36.7103C236.819 36.7394 236.059 36.5695 236.337 36.6701C236.433 36.7059 236.527 36.7438 236.623 36.7796C236.907 36.8869 236.216 36.5158 236.462 36.688C236.545 36.7461 236.627 36.7975 236.705 36.8601C236.849 36.9741 236.922 37.1395 236.576 36.7237C236.641 36.7997 236.712 36.8691 236.775 36.9473C236.822 37.0076 236.864 37.068 236.909 37.1306C237.09 37.3787 236.638 36.6388 236.842 37.0345C236.924 37.1932 236.994 37.3586 237.056 37.5262C237.117 37.6849 237.144 37.9532 237.007 37.3318C237.027 37.4189 237.052 37.5061 237.072 37.5955C237.11 37.7855 237.132 37.9755 237.141 38.17C237.137 37.9934 237.132 37.8191 237.126 37.6447C237.132 37.9264 237.108 38.2035 237.045 38.4785C237.085 38.3086 237.128 38.1387 237.17 37.9666C237.139 38.0895 237.106 38.2102 237.061 38.3287C237.034 38.4002 237.001 38.4673 236.971 38.5366C236.857 38.8026 237.217 38.1432 237.09 38.3242C237.016 38.4271 236.936 38.5277 236.866 38.6327C236.746 38.8115 237.246 38.2773 237.023 38.4695C236.963 38.521 236.904 38.5746 236.84 38.626C236.77 38.6796 236.549 38.8182 236.857 38.6305C237.166 38.4427 236.942 38.5791 236.866 38.6171C236.75 38.6774 236.629 38.7221 236.506 38.7713C236.211 38.8898 237.005 38.6573 236.69 38.711C236.625 38.7221 236.562 38.7378 236.498 38.749C236.354 38.7735 236.209 38.7869 236.064 38.7936C236.238 38.7892 236.413 38.7825 236.587 38.778C236.211 38.787 235.84 38.7512 235.476 38.664C235.644 38.7042 235.811 38.7445 235.979 38.787C235.796 38.74 235.619 38.6819 235.445 38.6081C235.36 38.5724 235.277 38.5232 235.192 38.4896C235.051 38.436 235.449 38.6215 235.447 38.6305C235.447 38.6238 235.297 38.5366 235.279 38.5232C235.203 38.4718 235.127 38.4159 235.056 38.3578C235.04 38.3444 234.935 38.2549 234.935 38.2549C234.951 38.2415 235.228 38.5701 235.138 38.4472C235.085 38.3734 235.011 38.3108 234.955 38.2393C234.922 38.199 234.893 38.1543 234.859 38.1141C234.698 37.9174 234.998 38.3131 234.978 38.3153C234.942 38.322 234.736 37.8302 234.741 37.79C234.741 37.7788 234.85 38.275 234.808 37.9889C234.801 37.9465 234.79 37.904 234.781 37.8615C234.763 37.7632 234.738 37.3675 234.745 37.7162C234.754 38.0739 234.754 37.6939 234.763 37.6112C234.772 37.5128 234.808 37.4078 234.808 37.3116C234.81 37.1105 234.75 37.6179 234.743 37.5665C234.738 37.5329 234.779 37.4368 234.792 37.3988C234.828 37.287 234.868 37.1775 234.915 37.0702C234.948 36.992 235.116 36.6723 234.957 36.9562C234.799 37.2401 234.98 36.9272 235.027 36.8556C235.085 36.7707 235.145 36.6858 235.21 36.6053C235.266 36.5338 235.536 36.2387 235.315 36.4711C235.087 36.7126 235.355 36.4443 235.413 36.3951C235.492 36.3281 235.577 36.27 235.657 36.2052C235.939 35.9794 235.344 36.3616 235.601 36.2342C235.706 36.1828 235.807 36.1269 235.916 36.08C235.95 36.0666 236.051 36.0129 236.08 36.0151C236.127 36.0218 235.657 36.0844 235.847 36.0934C235.941 36.0979 236.053 36.0532 236.149 36.042C236.2 36.0353 236.278 36.042 236.325 36.0263C236.343 36.0196 235.494 35.9146 235.632 35.9637C235.755 36.0084 235.364 35.8251 235.364 35.814C235.364 35.8184 235.489 35.89 235.505 35.9012C235.568 35.9436 235.63 35.9883 235.691 36.0353C235.762 36.0934 235.979 36.2946 235.711 36.0397C235.445 35.7849 235.653 35.9883 235.713 36.0576C235.769 36.1224 235.816 36.1917 235.869 36.2566C235.887 36.2789 235.921 36.3504 235.941 36.3616C235.941 36.3616 235.688 35.9101 235.782 36.109C235.818 36.185 235.861 36.2588 235.896 36.3348C235.97 36.4913 236.03 36.6477 236.093 36.8087C236.18 37.0322 236.008 36.5091 236.006 36.5159C235.997 36.5539 236.037 36.6366 236.046 36.6746C236.066 36.7595 236.082 36.8467 236.097 36.9316C236.129 37.1172 236.144 37.3049 236.151 37.4927C236.147 37.3206 236.142 37.1485 236.135 36.9763C236.144 37.3809 236.102 37.7833 236.01 38.1767C236.051 38.009 236.091 37.8414 236.133 37.6738C236.053 38.0001 235.936 38.3086 235.796 38.6126C235.621 38.9881 236.046 38.2192 235.881 38.4606C235.843 38.5143 235.811 38.5701 235.776 38.6238C235.684 38.7579 235.581 38.8786 235.478 39.0015C235.373 39.1155 235.451 39.0351 235.711 38.7579C235.577 38.8875 235.447 39.0216 235.322 39.1602C235.84 38.6551 235.561 38.9211 235.44 39.0284C235.331 39.1267 235.212 39.2117 235.092 39.2989C234.774 39.5291 235.485 39.1021 235.228 39.2161C235.17 39.243 235.114 39.2765 235.056 39.3033C234.98 39.3368 234.888 39.357 234.814 39.3994C235.152 39.3011 235.235 39.2765 235.062 39.3234C235.018 39.3346 234.973 39.3458 234.928 39.3547C235.369 39.4598 235.809 39.5648 236.249 39.6699C235.97 39.4776 235.679 39.3055 235.391 39.129C235.19 39.006 234.971 38.8451 234.754 38.7601C234.492 38.6595 234.222 38.6305 233.945 38.6752C233.806 38.6953 233.833 38.6976 234.021 38.6774C234.224 38.7557 234.428 38.8339 234.631 38.9121C234.441 38.7892 234.253 38.6685 234.063 38.5455C233.576 38.2326 232.963 38.255 232.554 38.6864C232.163 39.0887 232.105 39.7616 232.481 40.1997Z" fill="#9A442B"/>
<path d="M214.962 9.77439C214.962 8.69026 213.268 8.50025 213.268 9.59556C213.268 10.6819 214.962 10.8697 214.962 9.77439Z" fill="#9A442B"/>
<path d="M212.155 6.67875C211.826 6.7391 211.491 6.87991 211.245 7.11015C210.995 7.34262 210.782 7.62874 210.684 7.9618C210.894 7.74274 211.102 7.52145 211.312 7.30238C211.285 7.31356 211.256 7.32477 211.229 7.33595C210.789 7.51254 210.445 7.99532 210.414 8.46698C210.391 8.78886 210.387 9.11972 210.465 9.4349C210.505 9.60032 210.543 9.77466 210.628 9.92442C210.715 10.0764 210.805 10.2284 210.908 10.3715C211.037 10.5525 211.212 10.7068 211.375 10.8499C211.542 10.9996 211.755 11.1069 211.954 11.203C212.155 11.3014 212.392 11.3483 212.609 11.3818C212.656 11.3885 212.703 11.3908 212.749 11.3908C212.928 11.393 213.123 11.3975 213.302 11.364C213.476 11.3327 213.65 11.2701 213.816 11.2142C213.874 11.1941 213.927 11.1717 213.981 11.1427C214.178 11.0354 214.388 10.9191 214.551 10.7604C214.714 10.6039 214.886 10.4386 215.005 10.2441C215.266 9.81714 215.43 9.4036 215.492 8.89841C215.521 8.657 215.503 8.40442 215.49 8.163C215.483 8.05124 215.468 7.94168 215.441 7.83215C215.318 7.34709 215.152 6.92461 214.833 6.5312C214.683 6.34566 214.498 6.19144 214.321 6.03274C214.131 5.86285 213.887 5.74438 213.661 5.63708C213.413 5.51637 213.127 5.46048 212.857 5.41354C212.582 5.36659 212.289 5.38893 212.014 5.41128C211.728 5.43364 211.446 5.53646 211.18 5.62364C210.908 5.71305 210.668 5.87623 210.429 6.03717C210.311 6.11764 210.201 6.20706 210.098 6.30765C209.893 6.51106 209.671 6.72565 209.511 6.97153C209.352 7.21518 209.2 7.47452 209.095 7.74722C209.07 7.80981 209.05 7.87465 209.032 7.94171C208.972 8.16301 208.907 8.39098 208.876 8.62121C208.873 8.6391 208.871 8.65477 208.869 8.67265C208.862 8.74865 208.867 9.12418 208.882 9.20242C208.887 9.22701 208.894 9.24934 208.9 9.27169C208.952 9.47064 209.005 9.68524 209.09 9.87524C209.173 10.0541 209.289 10.224 209.399 10.3871C209.423 10.4251 209.45 10.4587 209.481 10.4922C209.638 10.6643 209.814 10.8498 210.018 10.9728C210.224 11.098 210.443 11.2366 210.68 11.3036C211.218 11.4534 211.627 11.5048 212.193 11.4355C212.542 11.393 212.893 11.2812 213.212 11.136C213.442 11.0309 213.657 10.8856 213.865 10.7493C213.943 10.6979 214.017 10.642 214.084 10.5794C214.265 10.4117 214.453 10.2307 214.596 10.0295C214.665 9.93112 214.721 9.81713 214.779 9.71207C214.837 9.60924 214.907 9.49525 214.954 9.38125C214.969 9.34325 214.978 9.30523 214.989 9.26723C215.045 9.06828 215.112 8.85816 215.13 8.65028C215.155 8.39768 215.155 8.12946 215.099 7.88134C215.054 7.68239 214.992 7.48343 214.92 7.2912C214.902 7.24202 214.88 7.19735 214.855 7.15265C214.768 7.00959 214.681 6.86876 214.591 6.72793C214.435 6.52005 214.24 6.36354 214.008 6.26072C213.865 6.15566 213.706 6.0953 213.532 6.07742C213.279 5.99248 213.02 5.97684 212.752 6.03049C212.32 6.07743 211.889 6.11991 211.462 6.19591C210.892 6.2965 210.322 6.37249 209.779 6.58038C209.645 6.66309 209.511 6.74578 209.376 6.82848C209.18 6.97601 209.032 7.15933 208.934 7.38063C208.835 7.51475 208.777 7.66452 208.759 7.82994C208.679 8.06912 208.666 8.31275 208.715 8.56535C208.782 8.87829 208.911 9.16887 209.101 9.42593C209.383 9.8037 209.888 10.0406 210.344 10.101C210.711 10.1479 211.089 10.101 211.457 10.0764C211.67 10.063 211.884 10.0474 212.097 10.0339C212.53 10.0049 212.96 9.94453 213.391 9.88864C212.689 9.51311 211.99 9.1376 211.288 8.7643C211.321 8.82465 211.35 8.88722 211.373 8.95428C211.323 8.79334 211.274 8.63017 211.225 8.46923C211.245 8.53629 211.259 8.60557 211.261 8.67487C211.256 8.50051 211.252 8.32617 211.245 8.15182C211.247 8.22558 211.241 8.29711 211.223 8.36864C211.263 8.19876 211.306 8.02886 211.346 7.86121C211.326 7.93945 211.294 8.01323 211.256 8.08476C211.337 7.93723 211.42 7.7897 211.5 7.64217C211.451 7.72711 211.393 7.80534 211.323 7.87687C211.437 7.75616 211.551 7.6377 211.668 7.51699C211.574 7.61311 211.469 7.6958 211.355 7.7651C211.495 7.67792 211.636 7.59073 211.777 7.50355C211.639 7.5885 211.491 7.65333 211.337 7.70251C211.498 7.65333 211.656 7.60415 211.817 7.55721C211.674 7.59968 211.527 7.62651 211.375 7.63098C211.547 7.62651 211.721 7.62203 211.893 7.61533C211.786 7.61756 211.681 7.60864 211.578 7.58405C211.746 7.62429 211.913 7.66451 212.081 7.70698C212.003 7.68686 211.927 7.66005 211.855 7.62205C212.001 7.70252 212.148 7.78299 212.293 7.86347C212.229 7.8277 212.171 7.78523 212.117 7.73382C212.235 7.84782 212.354 7.95957 212.472 8.07357C212.423 8.0244 212.381 7.97077 212.343 7.91265C212.428 8.05124 212.515 8.19206 212.6 8.33065C212.555 8.25912 212.521 8.18312 212.497 8.10042C212.551 8.42901 212.602 8.75759 212.656 9.08618C212.658 8.961 212.674 8.83806 212.703 8.71512C212.662 8.88053 212.622 9.04369 212.582 9.20911C212.62 9.05263 212.678 8.90512 212.754 8.7643C212.676 8.90736 212.598 9.04819 212.519 9.18902C212.609 9.02807 212.716 8.88051 212.843 8.74639C212.734 8.86039 212.624 8.97439 212.517 9.0884C212.667 8.93416 212.839 8.80454 213.02 8.68831C212.888 8.76878 212.756 8.85147 212.627 8.93194C212.758 8.85147 212.897 8.78441 213.045 8.73971C212.899 8.78441 212.754 8.82686 212.609 8.87157C212.734 8.8358 212.861 8.81347 212.993 8.80676C212.841 8.81123 212.687 8.8157 212.535 8.82017C212.658 8.81793 212.776 8.82912 212.895 8.85595C212.75 8.82018 212.606 8.78666 212.461 8.75089C212.562 8.77548 212.656 8.80899 212.747 8.85817C212.624 8.79111 212.501 8.7218 212.378 8.65474C212.432 8.6838 212.477 8.72406 212.524 8.7643C212.423 8.66818 212.325 8.57428 212.224 8.47816C212.307 8.5564 212.376 8.64359 212.437 8.73971C212.365 8.62347 212.291 8.505 212.22 8.38877C212.289 8.50277 212.34 8.62348 212.381 8.75089C212.34 8.61901 212.3 8.48487 212.26 8.35299C212.302 8.49828 212.327 8.64804 212.331 8.80004C212.327 8.65698 212.323 8.51394 212.32 8.37311C212.323 8.52288 212.309 8.67266 212.273 8.81795C212.307 8.67936 212.34 8.54298 212.374 8.40439C212.345 8.52063 212.302 8.6324 212.244 8.73746C212.311 8.61898 212.376 8.4983 212.441 8.37983C212.392 8.46701 212.334 8.54747 212.264 8.619C212.356 8.52288 212.45 8.42451 212.542 8.3284C212.484 8.38875 212.419 8.44018 212.347 8.48488C212.461 8.41559 212.575 8.34404 212.687 8.27474C212.613 8.31945 212.535 8.35522 212.45 8.38205C212.58 8.34181 212.707 8.30383 212.837 8.26359C212.765 8.28371 212.691 8.29712 212.615 8.30159C212.754 8.29712 212.893 8.29263 213.033 8.2904C212.955 8.29263 212.879 8.28369 212.803 8.26581C212.937 8.29934 213.074 8.33065 213.208 8.36417C213.134 8.34406 213.062 8.31498 212.995 8.27921C213.112 8.34404 213.23 8.40887 213.346 8.4737C213.264 8.42675 213.19 8.37088 213.121 8.30605C213.217 8.3977 213.311 8.4871 213.407 8.57875C213.326 8.49828 213.255 8.41111 213.194 8.31499C213.264 8.42676 213.331 8.53853 213.4 8.64806C213.308 8.49829 213.226 8.34182 213.116 8.20547C213.085 8.16523 213.056 8.12275 213.029 8.07804C213.096 8.18534 213.161 8.29264 213.228 8.40217C213.161 8.29264 213.107 8.17864 213.071 8.0557C213.107 8.17194 213.143 8.28815 213.176 8.40439C213.125 8.16744 213.042 7.91488 212.877 7.72935C212.694 7.5237 212.486 7.38958 212.233 7.27557C212.484 7.58405 212.734 7.89474 212.984 8.20322C212.984 8.19651 212.984 8.18758 212.984 8.18088C212.986 8.28817 212.991 8.39548 212.993 8.50501C212.991 8.42454 212.998 8.34404 213.015 8.26581C212.991 8.3664 212.966 8.46922 212.942 8.56981C212.957 8.50722 212.98 8.44689 213.009 8.38877C212.962 8.47371 212.915 8.56086 212.866 8.64581C212.897 8.58769 212.935 8.53628 212.982 8.4871C212.917 8.55416 212.852 8.62346 212.787 8.69052C212.832 8.64582 212.879 8.60781 212.933 8.57428C212.855 8.62122 212.779 8.67039 212.7 8.71733C212.716 8.70839 212.729 8.69948 212.745 8.69277C212.98 8.56089 213.205 8.37982 213.297 8.11382C213.375 7.88358 213.387 7.65558 213.317 7.42088C213.185 6.92911 212.678 6.58263 212.155 6.67875Z" fill="#9A442B"/>
<path d="M189.654 35.3558C189.808 35.7917 190.112 36.1203 190.45 36.4221C190.266 36.1226 190.081 35.823 189.898 35.5235C189.898 35.5436 189.898 35.5637 189.9 35.5838C189.895 35.452 189.893 35.3201 189.889 35.1882C189.889 35.1949 189.886 35.1994 189.886 35.2061C189.802 35.7336 190.088 36.2768 190.499 36.5897C191.592 37.4257 193.134 37.3318 194.212 36.5204C194.449 36.3416 194.661 36.1136 194.822 35.8633C194.999 35.5861 195.108 35.329 195.157 35.0071C195.207 34.6785 195.106 34.3678 194.994 34.0661C194.956 33.9632 194.914 33.8626 194.867 33.7621C194.619 33.2457 194.292 32.7517 193.892 32.3404C194.017 32.6198 194.143 32.897 194.268 33.1764C194.265 33.1607 194.265 33.1451 194.263 33.1294C194.268 33.2926 194.272 33.458 194.277 33.6212C194.279 33.1071 194.254 32.7427 193.975 32.2912C193.798 32.0051 193.559 31.7815 193.293 31.5781C192.996 31.3501 192.669 31.178 192.341 30.9992C191.802 30.7086 191.237 30.5588 190.638 30.4314C190.814 30.4739 190.991 30.5164 191.167 30.5611C190.79 30.4627 190.41 30.351 190.023 30.2995C189.625 30.2481 189.22 30.2749 188.818 30.2884C188.44 30.3532 188.1 30.5052 187.801 30.7466C187.504 30.9903 187.282 31.2898 187.142 31.6474C186.947 32.3203 186.853 33.0244 187.173 33.6861C187.387 34.1354 187.682 34.5042 188.083 34.8015C188.769 35.3134 189.634 35.4206 190.459 35.3402C191.275 35.2597 192.037 34.8149 192.551 34.1912C193.405 33.1563 193.282 31.4507 192.155 30.655C191.605 30.266 190.962 30.1632 190.322 30.3577C189.674 30.5544 189.272 30.9724 188.981 31.5759C188.907 31.7302 188.867 32.0118 188.829 32.1794C188.874 31.9961 188.919 31.8106 188.963 31.6273C188.939 31.7123 188.901 31.7994 188.86 31.8777C188.952 31.7123 189.044 31.5446 189.135 31.3792C189.113 31.4194 189.086 31.4552 189.057 31.4887C189.187 31.3524 189.316 31.216 189.448 31.0797C189.388 31.1423 189.316 31.1892 189.245 31.2384C189.406 31.1378 189.569 31.0394 189.73 30.9388C189.638 30.9947 189.542 31.0349 189.442 31.0662C189.625 31.0104 189.81 30.9545 189.994 30.8986C189.875 30.9321 189.757 30.95 189.634 30.9545C189.833 30.9478 190.032 30.9433 190.231 30.9366C190.121 30.9388 190.016 30.9299 189.909 30.9075C190.103 30.9545 190.296 31.0014 190.49 31.0484C190.412 31.0282 190.338 31.0036 190.266 30.9656C190.434 31.0595 190.604 31.1512 190.772 31.2451C190.722 31.216 190.678 31.1847 190.638 31.1467C190.774 31.2786 190.912 31.4083 191.049 31.5401C191.022 31.5133 191 31.4865 190.98 31.4574C191.08 31.6184 191.178 31.7816 191.279 31.9425C191.246 31.8866 191.216 31.8285 191.196 31.7659C191.252 31.9492 191.308 32.1325 191.362 32.3158C191.348 32.2644 191.339 32.213 191.335 32.1616C191.342 32.3583 191.346 32.5527 191.353 32.7494C191.353 32.7249 191.353 32.7025 191.353 32.6779C190.747 33.3195 190.141 33.9632 189.538 34.6048C189.844 34.5154 190.155 34.4639 190.472 34.4505C190.287 34.455 190.103 34.4617 189.918 34.4662C190.144 34.4617 190.349 34.4863 190.57 34.5355C190.396 34.493 190.22 34.4505 190.045 34.4081C190.416 34.4975 190.769 34.6361 191.105 34.8171C190.955 34.7344 190.805 34.6517 190.653 34.569C190.794 34.6472 190.93 34.7322 191.06 34.8261C191.588 35.2038 192.122 35.3335 192.757 35.2396C192.593 35.2441 192.428 35.2485 192.265 35.253C192.28 35.253 192.296 35.253 192.314 35.253C192.023 35.139 191.731 35.0272 191.438 34.9155C191.514 34.978 191.588 35.0451 191.661 35.1122C191.552 35.0071 191.442 34.9021 191.333 34.797C191.563 35.0205 191.762 35.2664 191.932 35.5369C191.854 35.4117 191.778 35.2865 191.699 35.1591C191.773 35.2798 191.838 35.4028 191.898 35.5302C191.887 35.0876 191.876 34.6428 191.865 34.2002C191.851 34.2292 191.838 34.2583 191.822 34.2851C191.894 34.1555 191.965 34.0258 192.037 33.8984C191.981 33.9945 191.918 34.0795 191.845 34.1599C191.945 34.0549 192.044 33.952 192.144 33.847C192.066 33.923 191.983 33.9878 191.894 34.0459C192.014 33.9699 192.137 33.8962 192.258 33.8202C192.151 33.885 192.039 33.9342 191.921 33.9744C192.057 33.9319 192.196 33.8917 192.332 33.8492C192.18 33.8962 192.026 33.9208 191.867 33.9275C192.012 33.923 192.16 33.9185 192.305 33.914C192.088 33.9185 191.867 33.9185 191.655 33.8716C191.789 33.9029 191.923 33.9364 192.055 33.9699C191.82 33.9118 191.608 33.8492 191.364 33.8559C191.026 33.8649 190.698 33.9587 190.439 34.1935C190.546 34.1264 190.653 34.0616 190.76 33.9945C190.745 34.0012 190.729 34.0102 190.714 34.0169C191.076 34.0079 191.438 33.999 191.8 33.9901C191.773 33.9767 191.746 33.9632 191.719 33.9498C191.825 34.0079 191.93 34.0661 192.035 34.1242C191.941 34.0705 191.858 34.0079 191.78 33.9342C191.862 34.0124 191.945 34.0929 192.028 34.1711C191.972 34.1152 191.923 34.0549 191.878 33.9923C191.503 33.4603 190.7 33.3888 190.179 33.7107C189.585 34.0683 189.433 34.7299 189.654 35.3558Z" fill="#9A442B"/>
<path d="M149.155 1.47936C149.15 1.66489 149.148 1.85941 149.184 2.04494C149.219 2.23271 149.282 2.41599 149.351 2.59258C149.313 2.36011 149.278 2.12763 149.24 1.89739C149.237 1.92198 149.233 1.94654 149.231 1.97113C149.228 1.98231 149.228 1.99353 149.228 2.00695C149.208 2.14106 149.213 2.27518 149.24 2.41154C149.278 2.53448 149.313 2.65743 149.351 2.77813C149.403 2.89214 149.499 3.02396 149.568 3.12679C149.579 3.14244 149.588 3.15589 149.599 3.17154C149.62 3.2006 149.642 3.22964 149.666 3.25647C149.841 3.46212 150.044 3.64539 150.263 3.80186C150.044 3.30338 149.823 2.80716 149.604 2.31092C149.582 2.46739 149.615 2.79155 149.615 2.79826C149.66 3.07991 149.796 3.41292 149.988 3.62975C150.098 3.73481 150.207 3.83767 150.315 3.94273C150.444 4.03438 150.581 4.11034 150.726 4.16846C150.945 4.25563 151.184 4.30039 151.412 4.34957C151.49 4.36522 151.569 4.37414 151.647 4.37638C151.886 4.37638 152.143 4.38531 152.382 4.33613C152.212 4.3406 152.043 4.34505 151.873 4.35175C151.886 4.35399 151.897 4.35622 151.911 4.36069C152.257 4.39646 152.588 4.34283 152.905 4.19977C153.212 4.05894 153.464 3.85554 153.665 3.58507C154.072 3.03071 154.153 2.27966 153.869 1.65154C153.589 1.03235 152.99 0.600904 152.315 0.529374C151.969 0.493609 151.638 0.547236 151.321 0.690297C151.014 0.831122 150.762 1.03459 150.561 1.30506C150.554 1.31624 150.547 1.32738 150.54 1.33856C150.652 1.22232 150.764 1.10389 150.876 0.987653C150.869 0.992124 150.865 0.994302 150.858 0.998772C150.994 0.91383 151.133 0.828926 151.269 0.743983C151.189 0.79316 151.104 0.831165 151.014 0.860225C151.166 0.813283 151.318 0.76855 151.473 0.721608C151.368 0.752903 151.262 0.770824 151.153 0.775295C151.312 0.770824 151.473 0.766327 151.631 0.761856C151.602 0.761856 151.573 0.761856 151.542 0.761856C151.225 0.730562 150.92 0.777525 150.63 0.909409C150.413 0.998821 150.232 1.13292 150.089 1.31175C149.868 1.54422 149.899 1.53082 149.704 1.8907C150.27 1.54646 150.836 1.20223 151.401 0.860225C151.316 0.857989 151.231 0.844529 151.148 0.824411C151.285 0.85794 151.421 0.891485 151.558 0.922779C151.452 0.895955 151.352 0.857966 151.256 0.808789C151.368 0.871378 151.479 0.931749 151.593 0.994338C151.354 0.857984 151.142 0.721618 150.853 0.703736C150.717 0.694794 150.565 0.712704 150.431 0.717174C150.561 0.712704 150.69 0.710457 150.818 0.705987C150.784 0.705987 150.753 0.708206 150.719 0.703736C150.938 0.788678 151.157 0.873651 151.377 0.958593C151.336 0.929534 151.3 0.898204 151.265 0.86691C151.345 0.94291 151.426 1.02114 151.506 1.09714C151.439 1.03232 151.381 0.963019 151.332 0.884782C151.388 0.974195 151.441 1.0636 151.497 1.15301C151.49 1.1396 151.482 1.12843 151.475 1.11501C151.421 1.02784 151.365 0.938466 151.312 0.851288C151.216 0.721639 151.093 0.623274 150.947 0.560685C150.858 0.495861 150.76 0.457872 150.65 0.446695C150.494 0.393048 150.33 0.384106 150.165 0.417635C149.959 0.462342 149.767 0.547246 149.597 0.672424C149.467 0.768543 149.371 0.891473 149.307 1.03677C149.217 1.15971 149.166 1.31171 149.155 1.47936Z" fill="#9A442B"/>
<path d="M145.538 37.7361C145.576 38.1094 145.743 38.4536 145.962 38.7532C145.871 38.4425 145.777 38.1317 145.685 37.821C145.676 37.8613 145.665 37.9015 145.656 37.9417C145.661 38.0803 145.665 38.2167 145.667 38.3553C145.694 38.5609 145.768 38.7442 145.889 38.9074C145.945 39.0304 146.027 39.131 146.135 39.2114C146.269 39.3634 146.434 39.4729 146.629 39.5422C147.111 39.7971 147.657 39.8105 148.184 39.7837C148.323 39.777 148.459 39.7568 148.596 39.7211C148.85 39.6518 149.123 39.5825 149.36 39.4551C149.758 39.2427 150.011 39.0169 150.306 38.6749C150.344 38.6302 150.379 38.581 150.411 38.5296C150.516 38.3575 150.63 38.1765 150.701 37.9865C150.867 37.5483 150.88 37.2018 150.851 36.7458C150.847 36.681 150.84 36.6184 150.824 36.5536C150.82 36.538 150.815 36.5201 150.811 36.5045C150.766 36.3592 150.724 36.2161 150.679 36.0708C150.592 35.8562 150.458 35.6774 150.281 35.5343C150.087 35.3488 149.981 35.2795 149.702 35.1521C149.666 35.1364 149.633 35.1208 149.597 35.1051C148.803 34.7765 147.896 34.6938 147.051 34.8302C147.21 34.8257 147.368 34.8212 147.529 34.8168C147.514 34.8145 147.5 34.8123 147.487 34.8078C147.643 34.8458 147.8 34.8838 147.956 34.9218C147.773 34.8704 147.592 34.8078 147.402 34.7899C147.221 34.7721 146.993 34.79 146.796 34.8168C146.7 34.8302 146.604 34.8481 146.508 34.8704C146.351 34.9174 146.195 34.9643 146.038 35.0135C145.806 35.1096 145.614 35.2527 145.459 35.4427C145.33 35.5477 145.236 35.6774 145.173 35.8316C145.033 36.044 144.952 36.2809 144.934 36.5402C144.919 36.9806 144.941 37.4209 144.988 37.859C144.983 37.6802 144.977 37.5014 144.972 37.3203C144.968 37.3606 144.965 37.403 144.963 37.4455C144.961 37.4723 144.961 37.4992 144.961 37.5282C144.966 37.7137 144.972 37.9015 144.977 38.087C145.01 38.2614 145.075 38.438 145.126 38.6056C145.202 38.8582 145.278 39.1086 145.383 39.3522C145.457 39.5221 145.542 39.6875 145.634 39.8485C145.766 40.0765 145.884 40.3134 146.065 40.5057C146.367 40.8276 146.669 41.1293 147.093 41.2947C148.055 41.6703 149.161 41.2545 149.926 40.6376C150.312 40.3246 150.552 39.9245 150.751 39.4752C150.782 39.4037 150.809 39.3299 150.831 39.2561C150.864 39.1443 150.889 39.0303 150.916 38.9186C150.941 38.8157 150.983 38.6839 150.994 38.5699C150.954 38.7308 150.916 38.894 150.876 39.0549C150.929 38.8381 151.003 38.6191 151.014 38.3955C151.03 38.0781 151.012 37.7272 150.864 37.4388C150.788 37.2891 150.69 37.1169 150.574 36.9917C150.688 37.2488 150.804 37.5036 150.92 37.7607C150.869 37.4768 150.786 37.184 150.65 36.9291C150.538 36.719 150.393 36.5134 150.198 36.3703C149.941 36.1825 149.633 36.0999 149.32 36.1088C149.063 36.1155 148.844 36.1803 148.625 36.3167C148.354 36.4843 148.18 36.7012 148.044 36.994C148.028 37.0253 148.012 37.0565 147.997 37.0878C148.057 36.9761 148.119 36.8666 148.18 36.7548C148.119 36.8643 148.046 36.9605 147.963 37.0521C148.316 36.8353 148.669 36.6184 149.023 36.4016C148.844 36.4284 148.685 36.4575 148.508 36.5469C148.372 36.6162 148.198 36.719 148.084 36.8196C147.927 36.9604 147.789 37.1191 147.643 37.2711C147.753 37.1571 147.862 37.0432 147.972 36.9269C147.892 36.9828 147.818 37.0432 147.737 37.0946C147.88 37.0074 148.023 36.918 148.164 36.8308C148.039 36.9068 147.909 36.9515 147.777 37.0074C147.637 37.0655 147.514 37.1437 147.368 37.1907C147.547 37.137 147.726 37.0834 147.905 37.0275C147.784 37.0633 147.661 37.0834 147.536 37.0923C148.222 37.3538 148.909 37.6132 149.595 37.8747C149.485 37.7205 149.376 37.5729 149.257 37.4254C149.141 37.2801 149.036 37.1281 148.938 36.9716C149.034 37.1259 149.13 37.2823 149.226 37.4366C149.148 37.3092 149.074 37.1773 149.009 37.0432C148.873 36.766 148.712 36.5089 148.526 36.2608C148.616 36.4061 148.705 36.5514 148.797 36.6967C148.723 36.538 148.663 36.3703 148.611 36.2027C148.66 36.3614 148.707 36.5223 148.757 36.681C148.73 36.5939 148.707 36.5089 148.685 36.4195C148.323 37.0968 147.959 37.7763 147.596 38.4536C147.684 38.4067 147.771 38.3597 147.86 38.3217C148.075 38.2279 148.267 38.0893 148.464 37.9619C148.187 38.087 147.912 38.21 147.634 38.3352C147.8 38.3016 147.965 38.2838 148.133 38.2748C147.974 38.2793 147.816 38.2837 147.657 38.2882C147.932 38.2815 148.204 38.3106 148.47 38.3754C148.318 38.3374 148.164 38.3016 148.012 38.2636C148.16 38.3016 148.303 38.3508 148.444 38.4089C148.124 38.1049 147.807 37.8032 147.487 37.4992C147.489 37.5081 147.491 37.5148 147.494 37.5237C147.449 37.3785 147.406 37.2332 147.362 37.0901C147.384 37.1683 147.4 37.2466 147.402 37.327C147.397 37.1706 147.393 37.0141 147.389 36.8599C147.391 36.9359 147.382 37.0096 147.366 37.0834C147.402 36.9314 147.44 36.7816 147.476 36.6296C147.456 36.7079 147.427 36.7839 147.389 36.8554C147.462 36.7235 147.534 36.5916 147.605 36.462C147.556 36.5469 147.498 36.6252 147.429 36.6967C147.532 36.5894 147.632 36.4821 147.735 36.377C147.614 36.5 147.476 36.614 147.33 36.7034C147.453 36.6274 147.576 36.5514 147.699 36.4754C147.567 36.5559 147.427 36.6207 147.277 36.6654C147.411 36.6251 147.547 36.5827 147.684 36.5425C147.554 36.5805 147.42 36.6028 147.284 36.6095C147.427 36.605 147.567 36.6005 147.708 36.5961C147.601 36.5983 147.496 36.5894 147.391 36.5648C147.525 36.5983 147.661 36.6296 147.795 36.6632C147.78 36.6609 147.766 36.6564 147.753 36.652C147.556 36.567 147.353 36.5357 147.143 36.5603C146.76 36.5715 146.432 36.6967 146.143 36.9537C146.662 36.9426 147.178 36.9292 147.697 36.918C147.632 36.8822 147.574 36.8398 147.52 36.7883C147.596 36.8599 147.672 36.9314 147.746 37.0052C147.69 36.9493 147.641 36.8889 147.601 36.8219C147.652 36.9068 147.706 36.9917 147.757 37.0767C147.753 37.07 147.748 37.061 147.744 37.0543C147.592 36.795 147.406 36.5514 147.107 36.4486C146.854 36.3614 146.604 36.3502 146.347 36.4284C146.114 36.4977 145.882 36.6363 145.743 36.8442C145.567 37.1259 145.506 37.4097 145.538 37.7361Z" fill="#9A442B"/>
<path d="M6.11861 27.0894C6.83839 27.2034 7.62523 27.2392 8.32713 27.0268C9.03572 26.8122 9.78899 26.3428 10.3456 25.86C11.5035 24.8541 12.2814 23.1106 12.3127 21.5883C12.3507 19.885 11.7226 18.4007 10.4663 17.2495C9.48279 16.3509 8.1438 15.7943 6.82049 15.6692C5.30271 15.5261 3.77375 15.7809 2.57115 16.7801C1.39313 17.7614 0.675602 19.2636 0.693484 20.8015C0.711367 22.3528 1.2031 23.9175 2.28723 25.0709C3.47865 26.3361 5.04339 27.0425 6.79812 26.8637C9.8538 26.553 11.651 23.2827 11.2196 20.4393C11.0162 19.1048 10.2607 17.7368 9.06925 17.0551C7.66994 16.2526 6.0068 16.2079 4.56055 16.9567C3.2663 17.6251 2.13749 18.783 1.64572 20.1733C1.00418 21.9817 1.40433 24.5345 3.43177 25.2699C5.35191 25.9673 7.28991 25.1358 8.55511 23.6448C9.81583 22.1605 9.9455 19.8962 8.82783 18.3113C8.38301 17.681 7.66988 17.1512 6.94117 16.9008C6.72658 16.8271 5.74752 16.608 6.36447 16.7488C7.18259 16.9388 5.36531 16.5119 5.93531 16.6393C5.8839 16.6281 5.83249 16.6147 5.78108 16.6035C5.37201 16.5253 4.9272 16.5476 4.52037 16.5767C4.29013 16.5924 4.06432 16.6281 3.84079 16.684C3.65526 16.7399 3.46975 16.7958 3.28421 16.8517C3.77822 16.7019 3.82067 16.6907 3.40714 16.8159C3.26184 16.8606 3.11655 16.9008 2.97349 16.9522C2.84831 16.9992 2.72536 17.0528 2.60689 17.1177C1.88041 17.5066 1.22322 18.0096 0.764975 18.7025C0.172615 19.5966 -0.167137 20.7545 0.0832188 21.8208C0.282162 22.6747 0.655469 23.4883 1.27912 24.1164C2.60243 25.4487 4.71704 25.9136 6.47177 25.214C7.14013 24.948 7.75485 24.4495 8.17732 23.8706C8.56627 23.3363 8.58417 22.4936 8.13264 21.9817C7.69675 21.4877 6.91434 21.2172 6.29516 21.5458C6.21916 21.5861 6.14093 21.6174 6.06493 21.6554C5.90398 21.7135 5.95991 21.7001 6.23485 21.6106C6.09626 21.6531 5.95991 21.6934 5.82133 21.7358C6.31086 21.7023 6.0471 21.6263 5.90851 21.662C6.36451 21.5503 6.25495 21.6621 6.05824 21.6486C5.97553 21.6419 5.8951 21.6285 5.81239 21.6174C5.61345 21.5771 5.70058 21.5995 6.07611 21.6866C5.90399 21.6442 5.7341 21.6039 5.56422 21.5615C6.31305 21.7604 5.6626 21.5548 5.48154 21.4833C5.0993 21.3312 5.83696 21.7157 5.66484 21.5905C5.59554 21.5413 5.52177 21.4989 5.45248 21.4497C5.35412 21.3782 4.87801 20.949 5.24237 21.291C5.60002 21.6263 5.17756 21.177 5.09932 21.0787C4.98085 20.9334 4.86906 20.797 4.76847 20.6383C4.878 20.8171 4.98979 20.9959 5.09932 21.1725C5.00097 21.0004 4.92496 20.826 4.86684 20.636C4.92943 20.8417 4.99197 21.0451 5.05232 21.2508C5.00761 21.0854 4.98308 20.9199 4.97414 20.7501C4.98085 20.9736 4.98749 21.1971 4.9942 21.4207C4.99196 21.11 4.97635 20.7992 4.9607 20.4908C4.96741 20.7121 4.97412 20.9356 4.98083 21.1569C4.97859 20.9669 4.99868 20.7858 5.04338 20.6025C4.99197 20.8149 4.94056 21.025 4.88915 21.2374C4.93162 21.0854 4.98754 20.9445 5.05907 20.8037C4.95848 20.9848 4.86012 21.1658 4.75953 21.3469C4.81095 21.2552 4.86461 21.1658 4.92496 21.0809C5.06355 20.8886 5.34293 20.7098 4.76622 21.215C4.84669 21.1435 4.92044 21.0697 5.00539 21.0026C5.17974 20.864 5.51504 20.7389 4.84221 21.0809C4.94057 21.0317 5.03223 20.9781 5.13282 20.9334C5.33623 20.8439 5.68491 20.8037 4.96514 20.9602C5.17749 20.9132 5.3832 20.8797 5.60003 20.8506C4.88696 20.9512 5.18202 20.8574 5.41673 20.8708C5.87944 20.8976 4.97637 20.6651 5.24237 20.8171C5.29155 20.835 5.33848 20.8574 5.38542 20.8797C5.57542 20.9758 5.47933 20.9222 5.09932 20.721C5.1485 20.7746 5.2826 20.873 5.34742 20.9043C5.04566 20.6025 4.96514 20.531 5.11044 20.683C5.14621 20.7232 5.17976 20.7635 5.21106 20.8059C5.41894 21.0496 4.91821 20.2247 5.13056 20.6897C5.34292 21.1546 5.05009 20.2113 5.1015 20.5466C5.11939 20.6606 5.13728 20.7702 5.14175 20.8842C5.13505 20.683 5.13058 20.4818 5.12388 20.2829C5.12611 20.4841 5.10376 20.6763 5.05682 20.873C5.10376 20.6763 5.15293 20.4796 5.19987 20.2829C5.16634 20.4081 5.12611 20.531 5.07469 20.6517C5.05234 20.7053 5.02107 20.7567 5.00095 20.8104C4.92048 21.016 5.29602 20.3522 5.15519 20.5243C5.07248 20.6271 5.00543 20.7478 4.92496 20.8529C4.88919 20.8998 4.8489 20.9445 4.8109 20.9915C4.60078 21.2552 5.19763 20.6338 4.99645 20.7925C4.9048 20.8663 4.81544 20.9445 4.72379 21.0183C4.56061 21.1457 4.39071 21.1233 4.96296 20.8775C4.91154 20.8998 4.86013 20.9334 4.80872 20.9579C4.75731 20.9825 4.70364 21.0026 4.65223 21.0272C4.40411 21.1479 4.95397 20.9333 4.97633 20.9356C4.87127 20.9177 4.6768 20.9937 4.5628 21.0004C4.76621 20.9937 4.96965 20.9892 5.17306 20.9825C5.00094 20.987 4.83775 20.9713 4.6701 20.9356C4.86681 20.9825 5.06579 21.0317 5.26249 21.0787C5.1172 21.0407 4.98309 20.9892 4.84897 20.9244C5.15968 21.1524 5.47262 21.3804 5.78333 21.6084C5.71403 21.519 5.44131 21.1077 5.68496 21.5078C5.92414 21.899 5.71179 21.5212 5.66709 21.4296C5.4972 21.0787 5.80115 22.0376 5.70727 21.5615C5.68491 21.4475 5.66038 20.9959 5.67602 21.4609C5.69167 21.9348 5.69167 21.4609 5.70508 21.3536C5.73414 21.1234 5.88164 20.8596 5.6514 21.5078C5.6894 21.4027 5.71403 21.2955 5.75427 21.1926C5.77439 21.1412 5.79894 21.0898 5.81682 21.0384C5.87941 20.9088 5.85931 20.9356 5.76095 21.1211C5.58436 21.4363 5.64021 21.3335 5.92856 20.8126C5.9308 20.8059 5.62685 21.2955 5.8012 21.0585C5.83473 21.0138 5.86379 20.9624 5.89732 20.9177C5.96438 20.8238 6.03366 20.7344 6.10743 20.6472C6.40472 20.2963 5.81458 20.9132 6.04705 20.7076C6.15435 20.6137 6.2594 20.5176 6.3734 20.4304C6.41811 20.3969 6.46506 20.3656 6.50977 20.3321C6.73553 20.1599 6.3041 20.4796 6.29516 20.4595C6.28845 20.4483 6.60144 20.3008 6.62826 20.2873C6.70426 20.2538 7.11108 20.1174 6.73331 20.2314C6.36001 20.3454 6.83164 20.2426 6.93223 20.227C7.15576 20.1934 6.43155 20.2136 6.65732 20.2359C6.71097 20.2404 6.76459 20.2404 6.81824 20.2449C6.8853 20.2516 6.95235 20.2627 7.01941 20.2717C7.19377 20.294 7.18932 20.4081 6.75344 20.2069C6.85179 20.2516 6.96576 20.2851 7.06635 20.3253C7.21835 20.3857 7.2206 20.5019 6.85624 20.2046C6.91659 20.2538 6.99482 20.2941 7.05741 20.341C7.09988 20.3723 7.14017 20.408 7.1804 20.4393C7.33464 20.56 7.14235 20.5533 6.99035 20.256C7.03059 20.3365 7.12899 20.4192 7.18934 20.4885C7.45981 20.8059 7.02616 20.1331 7.13122 20.3835C7.1491 20.4259 7.17592 20.4773 7.19828 20.5176C7.36369 20.8193 7.20722 20.3924 7.16028 20.3164C7.26311 20.4796 7.24294 20.7747 7.26977 20.9579C7.3033 21.1882 7.27649 20.4237 7.26308 20.6539C7.26085 20.7054 7.26307 20.759 7.26083 20.8104C7.25413 20.9423 7.24295 21.0742 7.22283 21.2038C7.20942 21.2977 7.11334 21.7224 7.2184 21.2888C7.3257 20.8484 7.20271 21.3156 7.17365 21.405C7.13789 21.5056 7.09988 21.6062 7.05741 21.7045C6.97247 21.9013 6.69306 22.2812 7.10659 21.6531C6.96577 21.8655 6.82274 22.0644 6.66851 22.2678C6.65957 22.2768 6.65057 22.288 6.64163 22.2969C6.98363 21.9415 7.01275 21.9124 6.72663 22.2097C6.22592 22.735 6.73105 22.3125 6.75787 22.1784C6.74222 22.2589 6.52769 22.3885 6.46734 22.4355C6.4271 22.4668 6.38239 22.4958 6.34216 22.5271C6.10074 22.7261 6.84511 22.279 6.55452 22.3952C6.43828 22.4422 6.31754 22.5003 6.20354 22.5562C6.06048 22.6255 5.79 22.5964 6.52095 22.4623C6.45613 22.4735 6.39354 22.4936 6.32872 22.507C6.17895 22.5361 6.02921 22.5473 5.87945 22.5517C6.07392 22.545 6.26836 22.5406 6.46283 22.5339C6.28624 22.5339 6.11861 22.516 5.94425 22.4936C5.57542 22.4489 6.52988 22.6747 6.18117 22.5539C6.1007 22.5271 6.02249 22.5026 5.94425 22.4713C5.86602 22.44 5.79002 22.4042 5.71402 22.3684C5.38543 22.2187 6.21025 22.6836 5.91519 22.4757C5.7766 22.3774 5.64247 22.279 5.50835 22.1717C5.2267 21.9437 5.904 22.5897 5.66259 22.3192C5.60447 22.2544 5.54636 22.1918 5.49047 22.127C5.37871 21.9929 5.28482 21.8476 5.182 21.7068C5.61118 22.2947 5.31392 21.9214 5.21556 21.718C5.12615 21.5324 5.06126 21.338 4.98526 21.1457C5.27138 21.8811 5.03449 21.3044 4.99202 21.0853C4.96296 20.9423 4.94282 20.7992 4.93164 20.6539C4.91376 20.4461 4.98978 20.2158 4.9339 20.8797C4.9406 20.7948 4.93836 20.7076 4.94283 20.6204C4.94954 20.5355 4.95848 20.4483 4.97189 20.3633C5.00542 20.1309 5.17526 19.8604 4.92714 20.4952C4.97855 20.3611 5.01433 20.2247 5.07244 20.0929C5.15515 19.9051 5.32059 19.7755 4.96964 20.2583C5.02105 20.1868 5.06128 20.1085 5.11269 20.037C5.1641 19.9632 5.22223 19.8961 5.27812 19.8269C5.50165 19.543 4.88691 20.1845 5.15962 19.952C5.29151 19.838 5.43683 19.7397 5.56872 19.6279C5.14848 19.9833 5.24459 19.8269 5.42342 19.724C5.49942 19.6816 5.57316 19.6369 5.6514 19.5966C5.80563 19.5184 5.96436 19.4558 6.1253 19.3954C6.45166 19.2703 5.63132 19.5161 5.97556 19.4424C6.04709 19.4267 6.11857 19.4089 6.1901 19.3954C6.26163 19.382 6.3332 19.3686 6.40696 19.3597C6.88085 19.2926 6.02246 19.3306 6.34434 19.3507C6.52317 19.3619 6.69977 19.3686 6.87636 19.3932C6.96578 19.4044 7.05298 19.4223 7.14016 19.4379C7.47545 19.4916 6.73779 19.3172 6.96579 19.391C7.12227 19.4424 7.28096 19.4826 7.43519 19.5407C7.5179 19.572 7.60059 19.6056 7.6833 19.6436C7.8353 19.7106 8.14158 19.9431 7.66993 19.619C7.81746 19.7196 7.97169 19.8045 8.11252 19.9118C8.15946 19.9476 8.20412 19.9856 8.25106 20.0213C8.38518 20.1353 8.46122 20.3186 8.17957 19.9431C8.28463 20.0817 8.41873 20.2002 8.52379 20.3432C8.61991 20.4729 8.69148 20.6986 8.48136 20.2493C8.53054 20.3566 8.59754 20.455 8.64672 20.5623C8.67131 20.6159 8.69593 20.6718 8.71828 20.7255C8.72946 20.7545 8.74065 20.7813 8.74959 20.8104C8.80994 20.987 8.79877 20.9401 8.71159 20.6673C8.70712 20.8529 8.80547 21.0764 8.82558 21.2642C8.84794 21.4743 8.74958 21.595 8.83452 21.1971C8.8144 21.2888 8.83004 21.405 8.82333 21.4989C8.80992 21.6889 8.73393 21.9079 8.7384 22.0957C8.72723 21.709 8.80991 21.8275 8.74509 22.0354C8.70485 22.165 8.6579 22.2924 8.60872 22.4198C8.57072 22.5137 8.52825 22.6076 8.48355 22.6992C8.45449 22.7618 8.42321 22.8222 8.38968 22.8825C8.5238 22.6434 8.54395 22.6031 8.4523 22.7596C8.20195 23.1284 7.93589 23.4861 7.65424 23.8303C7.64082 23.846 7.45532 24.0583 7.45532 24.0583C7.62073 23.8884 7.64083 23.8616 7.52012 23.9823C7.47095 24.0315 7.41953 24.0762 7.36589 24.1164C7.31224 24.1589 7.25411 24.1947 7.20046 24.2372C7.06411 24.3266 7.08872 24.3154 7.27202 24.1992C7.11778 24.264 6.98593 24.3534 6.87193 24.4696C6.79593 24.53 6.71541 24.5926 6.64388 24.6574C6.97471 24.3623 6.42711 24.8027 6.33322 24.8854C6.13428 25.0597 6.52545 24.8295 6.26391 24.9212C6.23038 24.9323 5.866 25.0687 6.05824 25.0106C5.56424 25.1603 5.17753 25.5023 5.20212 26.0612C5.22448 26.6178 5.59778 27.0067 6.11861 27.0894Z" fill="#9A442B"/>
<path d="M330.897 20.8907C330.859 21.1969 330.864 21.5099 330.886 21.8161C330.895 21.9346 330.911 22.0508 330.931 22.1693C330.94 22.2185 330.951 22.2677 330.96 22.3146C330.973 22.3817 331.137 22.907 331.061 22.6812C330.96 22.3839 331.154 22.9807 331.15 22.9628C331.17 23.0276 331.192 23.0925 331.217 23.1573C331.259 23.2668 331.306 23.3741 331.36 23.4792C331.412 23.582 331.472 23.6781 331.53 23.7787C331.586 23.8771 331.619 23.9508 331.689 24.0626C331.753 24.2057 331.85 24.3242 331.975 24.4158C332.203 24.6326 332.196 24.6259 331.957 24.4001C332.552 24.9277 333.03 25.339 333.756 25.6922C334.503 26.0565 335.308 26.1683 336.128 26.1325C337.487 26.0722 338.793 25.0618 339.539 23.971C340.221 22.974 340.67 21.767 340.739 20.5576C340.894 17.8998 339.465 15.2756 336.852 14.4016C334.563 13.6349 331.78 14.0998 330.043 15.85C329.053 16.8492 328.434 18.0406 328.307 19.4556C328.197 20.6716 328.412 21.9815 328.988 23.0679C330.263 25.4709 332.961 27.0646 335.694 26.7159C338.003 26.4209 340.009 24.541 340.65 22.3303C341.305 20.0681 341.088 17.5735 339.595 15.6757C338.866 14.7503 337.793 13.9903 336.649 13.6907C335.799 13.4672 335.102 13.3979 334.224 13.4516C333.609 13.4896 333.025 13.6639 332.442 13.8584C330.162 14.6161 328.302 16.657 327.739 18.975C327.56 19.7149 327.533 20.3922 327.6 21.1589C327.672 21.9547 328.38 22.8265 329.143 23.0634C330.967 23.6312 332.885 24.1677 334.809 23.8279C336.801 23.477 338.314 22.2364 339.195 20.4414C340.04 18.7157 339.716 16.4983 338.323 15.1683C336.863 13.7734 334.648 13.9053 333.099 15.0766C333.059 15.1079 333.019 15.1414 332.981 15.1727C332.522 15.6578 332.435 15.7472 332.719 15.4387C332.889 15.2599 332.92 15.2242 332.813 15.3292C332.847 15.4007 332.377 15.7651 332.241 15.9439C331.906 16.3843 331.673 16.9297 331.653 17.4885C331.619 18.4944 331.997 19.4958 332.864 20.0681C333.446 20.4503 334.157 20.5062 334.76 20.1329C335.341 19.773 335.656 19.1002 335.554 18.4162C335.529 18.2329 335.527 18.3201 335.549 18.6799C335.549 18.6375 335.554 18.595 335.56 18.5526C335.547 18.6084 335.388 19.1047 335.511 18.8096C335.305 19.3036 335.261 19.2276 335.393 19.06C335.015 19.5406 335.051 19.4087 335.227 19.2634C335.343 19.1672 335.457 19.0667 335.574 18.9705C335.831 18.7582 335.028 19.2097 335.33 19.1203C335.428 19.0913 335.524 19.0488 335.623 19.0175C335.428 19.0778 335.232 19.136 335.037 19.1963C335.261 19.1337 335.491 19.089 335.723 19.0734C335.504 19.0801 335.285 19.0868 335.066 19.0913C335.245 19.0868 335.417 19.1024 335.594 19.1404C335.377 19.0868 335.158 19.0354 334.941 18.9817C335.109 19.0264 335.265 19.0957 335.417 19.1784C335.225 19.0711 335.033 18.9661 334.84 18.861C334.928 18.9147 335.006 18.9728 335.082 19.0399C334.925 18.8901 334.769 18.7403 334.612 18.5905C334.693 18.671 334.76 18.756 334.823 18.8498C334.709 18.6643 334.595 18.481 334.481 18.2955C334.581 18.4587 334.657 18.6263 334.715 18.8096C334.65 18.5995 334.588 18.3871 334.523 18.177C334.561 18.3268 334.586 18.4766 334.597 18.6308C334.59 18.4028 334.583 18.1748 334.577 17.9468C334.583 18.1681 334.559 18.3804 334.512 18.5973C334.566 18.376 334.619 18.1547 334.673 17.9311C334.608 18.186 334.514 18.4229 334.393 18.6554C334.501 18.4609 334.606 18.2687 334.713 18.0742C334.563 18.338 334.387 18.5794 334.181 18.8029C334.333 18.6442 334.483 18.4877 334.633 18.329C334.443 18.5235 334.237 18.6934 334.011 18.8432C334.197 18.7292 334.384 18.6129 334.57 18.4989C334.288 18.6733 334 18.8029 333.683 18.9013C333.895 18.8365 334.105 18.7738 334.317 18.709C333.915 18.8185 333.511 18.8767 333.095 18.8946C333.321 18.8879 333.548 18.8811 333.774 18.8744C332.972 18.8878 332.187 18.756 331.407 18.5704C331.624 18.6218 331.841 18.6755 332.058 18.7291C331.689 18.6397 331.324 18.5414 330.958 18.4386C331.472 19.0734 331.986 19.7082 332.498 20.343C332.482 20.2179 332.473 20.0927 332.469 19.9675C332.475 20.1888 332.482 20.4101 332.489 20.6314C332.484 20.2916 332.522 19.9586 332.601 19.6277C332.549 19.8423 332.498 20.0547 332.444 20.2693C332.538 19.9116 332.677 19.5763 332.853 19.2522C332.75 19.4377 332.65 19.621 332.547 19.8066C332.735 19.4825 332.958 19.1896 333.215 18.9169C333.072 19.0667 332.927 19.2187 332.784 19.3685C333.092 19.051 333.43 18.7783 333.803 18.5391C333.627 18.6487 333.448 18.7582 333.271 18.8677C333.674 18.6196 334.096 18.4274 334.548 18.2865C334.347 18.3469 334.143 18.4095 333.94 18.4698C334.326 18.3581 334.715 18.2933 335.118 18.2799C334.899 18.2866 334.68 18.2933 334.461 18.2977C334.796 18.2933 335.124 18.3245 335.453 18.3983C335.241 18.3469 335.026 18.2955 334.814 18.2441C335.115 18.3201 335.399 18.4274 335.674 18.5704C335.489 18.4676 335.303 18.3648 335.118 18.2619C335.393 18.414 335.643 18.595 335.873 18.8096C335.721 18.6643 335.569 18.519 335.419 18.376C335.634 18.5861 335.817 18.8141 335.981 19.0644C335.871 18.8856 335.759 18.7068 335.65 18.528C335.849 18.8543 336.001 19.1986 336.112 19.5629C336.05 19.3595 335.989 19.1538 335.927 18.9504C336.041 19.3505 336.103 19.7574 336.119 20.1731C336.112 19.9518 336.106 19.7328 336.099 19.5115C336.11 19.9876 336.061 20.4571 335.951 20.9198C336.003 20.7052 336.057 20.4906 336.108 20.276C336.001 20.7029 335.844 21.1165 335.636 21.5054C335.739 21.3176 335.842 21.1321 335.945 20.9443C335.773 21.2528 335.569 21.5345 335.33 21.7938C335.475 21.6418 335.621 21.4898 335.766 21.3378C335.54 21.5702 335.294 21.7736 335.017 21.9435C335.196 21.834 335.373 21.7245 335.551 21.6127C335.312 21.7535 335.064 21.8653 334.798 21.9502C335.001 21.8899 335.203 21.8273 335.406 21.7647C335.1 21.8541 334.794 21.9033 334.476 21.9123C334.695 21.9055 334.912 21.8988 335.131 21.8943C334.82 21.8943 334.521 21.8586 334.219 21.787C334.431 21.8385 334.642 21.8899 334.854 21.9413C334.523 21.8541 334.208 21.7289 333.904 21.5702C334.087 21.6708 334.27 21.7736 334.456 21.8742C334.067 21.6574 333.714 21.3959 333.392 21.0874C333.542 21.2305 333.689 21.3713 333.839 21.5143C333.622 21.2998 333.423 21.074 333.244 20.8281C333.162 20.7119 333.081 20.5934 333.001 20.4749C332.943 20.3878 332.773 20.1217 333.008 20.4973C333.247 20.884 333.068 20.5889 333.025 20.5107C332.958 20.3877 332.898 20.2603 332.844 20.1307C332.813 20.0591 332.788 19.9876 332.759 19.9161C332.648 19.6479 332.851 20.2022 332.847 20.2223C332.864 20.115 332.764 19.8848 332.744 19.773C332.719 19.6233 332.706 19.4735 332.697 19.3215C332.704 19.5204 332.708 19.7172 332.715 19.9161C332.719 19.6702 332.75 19.4288 332.804 19.1896C332.757 19.3796 332.71 19.5718 332.666 19.7641C332.712 19.583 332.768 19.4042 332.842 19.2321C333.032 18.794 332.746 19.3885 332.742 19.3841C332.73 19.3751 332.871 19.1762 332.893 19.1449C332.947 19.0689 333.003 18.9929 333.063 18.9214C333.358 18.5615 332.931 19.0465 332.931 19.0465C332.911 19.013 333.367 18.68 333.394 18.6576C333.551 18.5168 332.867 18.937 333.244 18.7537C333.329 18.7135 333.41 18.6688 333.495 18.6285C333.58 18.5883 333.667 18.5526 333.754 18.519C333.841 18.4855 334.199 18.3715 333.799 18.4944C333.396 18.6174 333.759 18.5123 333.848 18.4922C333.94 18.4721 334.034 18.4542 334.127 18.4386C334.331 18.405 334.534 18.3894 334.74 18.3804C334.545 18.3871 334.349 18.3916 334.154 18.3961C334.566 18.3894 334.968 18.4296 335.368 18.5235C335.176 18.4766 334.986 18.4296 334.794 18.3827C334.99 18.4341 335.182 18.4922 335.37 18.5704C335.455 18.6062 335.538 18.6509 335.625 18.6844C335.837 18.7672 335.089 18.3402 335.446 18.5883C335.473 18.6062 335.931 18.9527 335.931 18.9527C335.902 18.9728 335.469 18.4721 335.786 18.8252C335.849 18.8945 335.909 18.9661 335.965 19.0421C336.021 19.1158 336.068 19.1963 336.124 19.2701C335.728 18.7403 335.911 18.9191 336.003 19.1002C336.086 19.2656 336.141 19.44 336.213 19.6098C335.938 18.9549 336.095 19.2075 336.144 19.402C336.166 19.4914 336.186 19.5808 336.202 19.6724C336.24 19.887 336.26 20.1016 336.269 20.3184C336.262 20.1173 336.258 19.9139 336.251 19.7127C336.258 20.1195 336.217 20.5196 336.128 20.9175C336.175 20.7208 336.224 20.5241 336.271 20.3274C336.188 20.6627 336.068 20.9756 335.929 21.2931C335.79 21.606 336.204 20.8527 336.059 21.0673C336.016 21.1299 335.978 21.1992 335.938 21.264C335.853 21.3914 335.761 21.5166 335.663 21.6328C335.603 21.7044 335.54 21.7692 335.48 21.8385C335.254 22.0888 335.853 21.4898 335.654 21.6552C335.525 21.7647 335.397 21.872 335.265 21.9771C335.004 22.1827 335.699 21.7647 335.471 21.8563C335.243 21.948 336.036 21.7468 335.685 21.8116C335.498 21.8452 335.308 21.8653 335.12 21.8921C334.928 21.9212 334.76 21.8385 335.323 21.8988C335.238 21.8899 335.149 21.8966 335.062 21.8921C334.975 21.8854 334.89 21.8787 334.805 21.8653C334.606 21.8385 334.422 21.7178 334.912 21.91C334.749 21.8452 334.577 21.8116 334.414 21.7446C334.355 21.72 334.192 21.6172 334.132 21.6149C334.208 21.6574 334.284 21.6999 334.36 21.7424C334.27 21.6731 334.174 21.6149 334.069 21.568C333.94 21.4965 333.817 21.4339 333.68 21.3892C333.383 21.2886 333.973 21.5926 333.707 21.3981C333.613 21.3288 333.224 21.0136 333.504 21.2796C333.417 21.1947 333.327 21.112 333.24 21.027C333.363 21.1522 333.388 21.1768 333.318 21.1008C333.271 21.0315 333.206 20.9734 333.157 20.9086C333.135 20.8795 332.97 20.6135 333.095 20.8348C333.043 20.7454 332.999 20.6537 332.954 20.5599C332.493 19.592 331.027 19.8312 330.897 20.8907Z" fill="#9A442B"/>
</svg>
