<svg width="947" height="669" viewBox="0 0 947 669" fill="none" xmlns="http://www.w3.org/2000/svg">
<path d="M860.748 588.023C860.747 588.008 860.745 587.985 860.743 587.957C860.739 587.898 860.733 587.815 860.728 587.732C860.722 587.649 860.715 587.565 860.711 587.502C860.709 587.47 860.706 587.443 860.705 587.425C860.704 587.416 860.704 587.408 860.704 587.403C860.704 587.401 860.703 587.399 860.703 587.397V587.395C860.605 586.181 860.521 585.162 860.521 584.353C860.521 552.955 891.604 528.057 928.929 528.057C929.305 528.057 929.809 528.055 930.269 528.098C931.197 528.141 931.394 528.162 931.779 528.176L931.79 528.177H931.801C931.943 528.183 933.636 528.257 935.299 528.329C936.129 528.365 936.95 528.4 937.563 528.427C937.87 528.44 938.125 528.451 938.303 528.459C938.392 528.463 938.462 528.466 938.51 528.468C938.534 528.469 938.552 528.47 938.564 528.471H938.582L945 528.732V515.803L944.902 214.229V208.073H938.743L928.934 208.085H928.931C893.398 208.085 863.13 185.306 860.752 155.479V155.479L860.281 149.726L859.817 144.075H804.76L804.481 142.405C798.429 106.197 762.84 78.4933 719.571 78.4932H609.041L608.497 77.3564C586.917 32.2547 533.616 2.00016 473.501 2C413.378 2 360.074 32.255 338.504 77.3564L337.96 78.4932H227.406C184.137 78.4932 148.535 106.197 142.496 142.405L142.218 144.076H79.8193L79.3643 149.736V149.737L78.8994 155.481C76.5897 184.36 48.3404 206.617 13.9131 207.941L13.9121 207.94C13.9094 207.941 13.9068 207.941 13.9043 207.941C13.8923 207.942 13.8749 207.942 13.8535 207.943C13.8102 207.945 13.746 207.948 13.665 207.951C13.503 207.958 13.2704 207.967 12.9912 207.978C12.4323 208 11.6852 208.029 10.9375 208.059C10.1896 208.088 9.44052 208.117 8.87891 208.139C8.59828 208.15 8.36398 208.159 8.2002 208.165C8.11867 208.168 8.05457 208.171 8.01074 208.173C7.98879 208.174 7.9713 208.174 7.95996 208.175C7.95443 208.175 7.9501 208.176 7.94727 208.176H7.93359L2 208.379V530.27L8.85449 529.479L15.8105 528.666H15.8115C19.3583 528.252 22.4017 528.057 25.4062 528.057C43.8055 528.057 61.1217 534.017 74.1494 544.918H74.1504C81.2266 550.845 87.1835 558.422 90.5664 567.182L90.7656 567.707C92.7848 573.158 93.6273 579.219 93.9756 585.222C94.293 590.693 94.2074 596.255 94.1826 601.324L99.5615 601.458C100.281 601.445 103.318 601.434 105.944 601.434H142.217L142.495 603.104C148.538 639.312 184.135 667 227.405 667H719.57C762.84 667 798.428 639.312 804.48 603.104L804.76 601.434H861.811L861.281 594.788V594.787L860.751 588.06V588.059L860.75 588.052C860.75 588.048 860.75 588.044 860.75 588.044L860.749 588.042M860.748 588.023L860.749 588.034V588.042M860.748 588.023C860.748 588.024 860.748 588.025 860.748 588.026C860.749 588.033 860.749 588.038 860.749 588.042M860.748 588.023C860.747 588.014 860.745 587.87 860.752 587.737C860.907 587.594 861.062 587.473 861.216 587.372L862.698 587.253M860.749 588.042L862.743 587.894C862.737 587.812 862.698 587.253 862.698 587.253M862.698 587.253C861.991 587.303 861.534 587.335 861.239 587.356C861.737 587.035 862.225 586.919 862.672 586.919C862.681 587.028 862.689 587.139 862.698 587.253ZM13.8359 207.942C13.798 207.938 12.7435 207.255 12.3613 206C13.086 205.972 13.6495 205.949 13.7979 205.943L13.8359 207.942Z" fill="#9A442B" stroke="#FE9071" stroke-width="4"/>
</svg>
